# Blender v2.83.4 OBJ File: 'untitled.blend'
# www.blender.org
mtllib Antorcha.mtl
o Antorcha.006_Cilindro.003
v -0.127981 1.874775 0.162134
v -0.127981 1.853933 0.242648
v -0.127981 2.029074 0.287986
v -0.127981 2.049916 0.207472
v 0.000000 1.853612 0.113920
v -0.048760 1.849642 0.129258
v -0.079097 1.891636 0.096998
v 0.000000 1.898077 0.072118
v 0.000000 1.619817 0.212349
v 0.000000 1.812034 0.274538
v -0.048760 1.816004 0.259200
v -0.041687 1.623211 0.199236
v -0.079097 2.066777 0.142336
v 0.000000 2.073218 0.117456
v 0.078896 1.839247 0.169412
v 0.048760 1.849642 0.129258
v 0.079097 1.891636 0.096998
v 0.127981 1.874775 0.162134
v -0.078896 1.826399 0.219046
v -0.067451 1.632098 0.164907
v 0.079097 1.837071 0.307784
v 0.127981 1.853933 0.242648
v 0.127981 2.029074 0.287986
v 0.079097 2.012213 0.353122
v 0.048760 1.816004 0.259200
v 0.078896 1.826399 0.219046
v -0.078896 1.839247 0.169412
v -0.067451 1.643082 0.122473
v 0.127981 2.049916 0.207472
v 0.000000 1.830631 0.332664
v -0.079097 1.837071 0.307784
v -0.041687 1.651969 0.088144
v 0.079097 2.066777 0.142336
v 0.000000 1.655364 0.075031
v 0.000000 2.005772 0.378002
v 0.041687 1.651969 0.088144
v 0.067451 1.643082 0.122473
v -0.097754 2.047455 0.216980
v -0.097754 2.031535 0.278478
v -0.097754 1.922373 0.250219
v -0.097754 1.938293 0.188722
v 0.067451 1.632098 0.164907
v -0.079097 2.012213 0.353122
v 0.041687 1.623211 0.199236
v 0.000000 1.208748 0.080216
v -0.027050 1.210950 0.071707
v -0.043768 1.216717 0.049431
v -0.043768 1.223845 0.021897
v -0.027050 1.229611 -0.000379
v -0.000000 1.231814 -0.008888
v 0.027050 1.229611 -0.000379
v 0.043768 1.223845 0.021897
v 0.043768 1.216717 0.049431
v 0.027050 1.210950 0.071707
v 0.038935 1.518541 0.168228
v 0.000000 1.515370 0.180475
v 0.038935 1.545400 0.064470
v 0.000000 1.548570 0.052223
v 0.000000 1.560988 0.032218
v 0.052147 1.556742 0.048621
v 0.062998 1.526841 0.136165
v -0.090340 1.641530 0.114389
v -0.090340 1.626818 0.171223
v 0.062998 1.537100 0.096533
v 0.052147 1.520768 0.187590
v 0.000000 1.516522 0.203993
v 0.090340 1.641530 0.114389
v 0.055833 1.653433 0.068410
v -0.062998 1.537100 0.096533
v -0.062998 1.526841 0.136165
v -0.084376 1.531885 0.144646
v -0.084376 1.545626 0.091565
v -0.038935 1.545400 0.064470
v 0.084376 1.545626 0.091565
v -0.055833 1.653433 0.068410
v 0.090340 1.626818 0.171223
v -0.038935 1.518541 0.168228
v -0.052147 1.556742 0.048621
v -0.055833 1.614916 0.217202
v 0.000000 1.610370 0.234764
v 0.084376 1.531885 0.144646
v 0.000000 1.657979 0.050848
v -0.052147 1.520768 0.187590
v 0.055833 1.614916 0.217202
v -0.000000 1.657979 -0.110992
v -0.055833 1.653433 -0.093430
v 0.055833 1.653433 -0.093430
v 0.000000 2.013737 0.347234
v -0.060415 2.018656 0.328230
v 0.060415 2.018656 0.328230
v 0.097754 2.031535 0.278478
v 0.097754 2.047455 0.216980
v 0.060415 2.060334 0.167228
v 0.000000 2.065253 0.148224
v -0.060415 2.060334 0.167228
v -0.060415 1.909494 0.299972
v 0.000000 1.904575 0.318976
v 0.060415 1.909494 0.299972
v 0.097754 1.922373 0.250219
v 0.097754 1.938293 0.188722
v 0.060415 1.951172 0.138970
v 0.000000 1.956091 0.119966
v -0.060415 1.951172 0.138970
v -0.037191 1.937572 0.168468
v -0.037191 2.027321 0.191701
v 0.000000 2.030349 0.180002
v 0.000000 1.940600 0.156770
v 0.037191 1.911916 0.267580
v 0.037191 2.001664 0.290812
v 0.000000 1.998636 0.302511
v 0.000000 1.908887 0.279278
v 0.037191 1.937572 0.168468
v 0.037191 2.027321 0.191701
v 0.060176 2.019392 0.222328
v 0.060176 1.929644 0.199095
v 0.060176 1.919844 0.236953
v 0.060176 2.009593 0.260185
v -0.060176 1.929644 0.199095
v -0.060176 2.019392 0.222328
v -0.037191 2.001664 0.290812
v -0.037191 1.911916 0.267580
v -0.060176 1.919844 0.236953
v -0.060176 2.009593 0.260185
v -0.052147 1.556742 -0.113219
v -0.000000 1.560988 -0.129622
v 0.052147 1.556742 -0.113219
vt 0.656507 0.428673
vt 0.661563 0.428673
vt 0.661563 0.428673
vt 0.656507 0.428673
vt 0.622314 0.421117
vt 0.670647 0.421117
vt 0.670647 0.421117
vt 0.622314 0.421117
vt 0.671674 0.420438
vt 0.671674 0.428673
vt 0.666618 0.428673
vt 0.666618 0.420438
vt 0.646396 0.428673
vt 0.651452 0.428673
vt 0.651452 0.428673
vt 0.646396 0.428673
vt 0.636285 0.428673
vt 0.641341 0.428673
vt 0.641341 0.428673
vt 0.636285 0.428673
vt 0.661563 0.428673
vt 0.661563 0.420438
vt 0.626174 0.428673
vt 0.631230 0.428673
vt 0.631230 0.428673
vt 0.626174 0.428673
vt 0.626174 0.428673
vt 0.631230 0.428673
vt 0.656507 0.428673
vt 0.656507 0.420438
vt 0.636285 0.428673
vt 0.671674 0.428673
vt 0.666618 0.428673
vt 0.651452 0.428673
vt 0.651452 0.420438
vt 0.641341 0.428673
vt 0.621119 0.428673
vt 0.621119 0.428673
vt 0.646396 0.428673
vt 0.646396 0.420438
vt 0.621119 0.428673
vt 0.641341 0.420438
vt 0.636285 0.420438
vt 0.641271 0.388316
vt 0.641271 0.393198
vt 0.641271 0.393198
vt 0.641271 0.388316
vt 0.631230 0.420438
vt 0.666618 0.428673
vt 0.626174 0.420438
vt 0.671674 0.428673
vt 0.621119 0.420438
vt 0.750000 0.490000
vt 0.891068 0.444164
vt 0.978254 0.324164
vt 0.978254 0.175836
vt 0.891068 0.055836
vt 0.750000 0.010000
vt 0.608932 0.055836
vt 0.521746 0.175836
vt 0.521746 0.324164
vt 0.608932 0.444164
vt 0.626174 0.403396
vt 0.626174 0.412012
vt 0.621119 0.412012
vt 0.621119 0.403396
vt 0.641341 0.412012
vt 0.646396 0.412012
vt 0.646396 0.412012
vt 0.641341 0.412012
vt 0.631230 0.403396
vt 0.631230 0.412012
vt 0.656507 0.420438
vt 0.661563 0.420438
vt 0.636285 0.403396
vt 0.636285 0.412012
vt 0.626174 0.412012
vt 0.621119 0.412012
vt 0.641341 0.403396
vt 0.636285 0.420438
vt 0.641341 0.420438
vt 0.646396 0.403396
vt 0.656507 0.412012
vt 0.661563 0.412012
vt 0.661563 0.412012
vt 0.656507 0.412012
vt 0.651452 0.403396
vt 0.651452 0.412012
vt 0.636285 0.412012
vt 0.656507 0.403396
vt 0.651452 0.420438
vt 0.661563 0.403396
vt 0.631230 0.420438
vt 0.666618 0.403396
vt 0.666618 0.412012
vt 0.651452 0.412012
vt 0.671674 0.403396
vt 0.671674 0.412012
vt 0.666618 0.420438
vt 0.671674 0.420438
vt 0.631230 0.412012
vt 0.646396 0.420438
vt 0.671674 0.412012
vt 0.666618 0.412012
vt 0.626174 0.420438
vt 0.621119 0.420438
vt 0.646396 0.420438
vt 0.651452 0.420438
vt 0.641341 0.420438
vt 0.640889 0.400573
vt 0.633758 0.402890
vt 0.633758 0.398657
vt 0.638401 0.397149
vt 0.626626 0.400573
vt 0.629114 0.397149
vt 0.622218 0.394506
vt 0.626244 0.393198
vt 0.622218 0.387008
vt 0.626244 0.388316
vt 0.626626 0.380941
vt 0.629114 0.384366
vt 0.633758 0.378624
vt 0.633758 0.382857
vt 0.640889 0.380941
vt 0.638401 0.384366
vt 0.645297 0.387008
vt 0.645297 0.394506
vt 0.638401 0.397149
vt 0.633758 0.398657
vt 0.629114 0.397149
vt 0.626244 0.393198
vt 0.626244 0.388316
vt 0.629114 0.384366
vt 0.633758 0.382857
vt 0.638401 0.384366
vt 0.513280 0.644639
vt 0.513280 0.689575
vt 0.500159 0.689575
vt 0.500159 0.644639
vt 0.485379 0.504704
vt 0.485379 0.524957
vt 0.479465 0.524957
vt 0.479465 0.504704
vt 0.502644 0.455935
vt 0.502644 0.500871
vt 0.489523 0.500871
vt 0.489523 0.455935
vt 0.491293 0.504704
vt 0.491293 0.524957
vt 0.505255 0.693409
vt 0.505255 0.713661
vt 0.499342 0.713661
vt 0.499342 0.693409
vt 0.522997 0.693409
vt 0.522997 0.713661
vt 0.517083 0.713661
vt 0.517083 0.693409
vt 0.515766 0.455935
vt 0.515766 0.500871
vt 0.476401 0.500871
vt 0.476401 0.455935
vt 0.511169 0.693409
vt 0.511169 0.713661
vt 0.515766 0.600882
vt 0.527405 0.597101
vt 0.534598 0.587200
vt 0.534598 0.574962
vt 0.527405 0.565062
vt 0.515766 0.561280
vt 0.504127 0.565062
vt 0.496934 0.574962
vt 0.496934 0.587200
vt 0.504127 0.597101
vt 0.651452 0.412012
vt 0.646396 0.412012
vt 0.668865 0.367232
vt 0.668865 0.453579
vt 0.617057 0.453579
vt 0.617057 0.367232
vt 0.641341 0.412012
vn -1.0000 0.0000 0.0000
vn -0.1709 -0.6749 -0.7179
vn -0.3085 -0.2928 0.9050
vn -0.3090 0.2383 -0.9207
vn 0.4473 -0.7252 -0.5234
vn -0.8077 -0.2019 0.5539
vn 0.8090 -0.1473 0.5690
vn 0.4473 -0.8881 0.1058
vn -0.9984 -0.0549 -0.0142
vn 1.0000 -0.0000 -0.0000
vn -0.1708 -0.9384 0.3002
vn -0.8077 0.0922 -0.5823
vn 0.3090 0.2383 -0.9207
vn 0.1708 -0.9384 0.3002
vn -0.3085 0.1831 -0.9334
vn 0.3090 -0.2383 0.9207
vn -0.4473 -0.8881 0.1058
vn 0.3085 0.1831 -0.9334
vn -0.8090 0.1473 -0.5690
vn -0.4473 -0.7252 -0.5234
vn 0.8077 0.0922 -0.5823
vn 0.1709 -0.6749 -0.7179
vn 0.9984 -0.0549 -0.0142
vn 0.5529 -0.8067 -0.2088
vn -0.8090 -0.1473 0.5690
vn 0.8077 -0.2019 0.5539
vn -0.3090 -0.2383 0.9207
vn -0.5529 -0.8067 -0.2088
vn 0.3085 -0.2928 0.9050
vn -0.0000 -0.9681 -0.2506
vn 0.8090 0.1473 -0.5690
vn 0.3085 -0.2956 0.9041
vn 0.0963 -0.8457 -0.5249
vn 0.8076 -0.2048 0.5531
vn -0.1524 0.9568 0.2477
vn 0.9982 -0.0577 -0.0149
vn 0.0963 -0.9942 0.0487
vn 0.8076 0.0893 -0.5830
vn 0.1233 0.9792 0.1610
vn 0.3085 0.1802 -0.9340
vn -0.3115 -0.9199 -0.2381
vn -0.3085 0.1802 -0.9340
vn 0.2520 -0.8740 -0.4154
vn -0.8076 0.0893 -0.5830
vn -0.1233 0.9792 0.1610
vn -0.9982 -0.0577 -0.0149
vn 0.1524 0.9568 0.2477
vn -0.8076 -0.2048 0.5531
vn -0.2520 -0.8740 -0.4154
vn -0.3085 -0.2956 0.9041
vn -0.0471 0.9205 0.3879
vn 0.3115 -0.9199 -0.2381
vn -0.0471 0.9931 0.1074
vn -0.0963 -0.9942 0.0487
vn 0.1233 0.9343 0.3344
vn -0.0963 -0.8457 -0.5249
vn -0.1233 0.9343 0.3344
vn 0.2520 -0.9658 -0.0609
vn 0.0471 0.9931 0.1074
vn -0.2520 -0.9658 -0.0609
vn 0.0471 0.9205 0.3879
vn -0.3084 -0.2964 0.9039
vn -0.8075 -0.2055 0.5529
vn -0.9982 -0.0585 -0.0151
vn -0.8075 0.0886 -0.5831
vn -0.0812 0.9967 0.0000
vn 0.0812 0.9967 0.0000
vn 0.8075 0.0886 -0.5831
vn 0.9982 -0.0585 -0.0151
vn 0.8075 -0.2055 0.5529
vn 0.3084 -0.2964 0.9039
vn 0.0000 0.9681 0.2506
vn -0.3085 0.1794 -0.9342
vn 0.3085 0.1794 -0.9342
vn -0.9993 -0.0381 0.0000
vn 0.9993 -0.0381 -0.0000
vn -0.0812 -0.9967 0.0000
vn 0.0812 -0.9967 0.0000
usemtl Grid
s 1
f 1/1/1 2/2/1 3/3/1 4/4/1
f 5/5/2 6/6/2 7/7/2 8/8/2
f 9/9/3 10/10/3 11/11/3 12/12/3
f 8/13/4 7/14/4 13/15/4 14/16/4
f 15/17/5 16/18/5 17/19/5 18/20/5
f 12/12/6 11/11/6 19/21/6 20/22/6
f 21/23/7 22/24/7 23/25/7 24/26/7
f 25/27/8 26/28/8 22/24/8 21/23/8
f 20/22/9 19/21/9 27/29/9 28/30/9
f 22/24/10 18/20/10 29/31/10 23/25/10
f 11/11/11 10/10/11 30/32/11 31/33/11
f 28/30/12 27/29/12 6/34/12 32/35/12
f 17/19/13 8/13/13 14/16/13 33/36/13
f 10/37/14 25/27/14 21/23/14 30/38/14
f 32/35/15 6/34/15 5/39/15 34/40/15
f 30/38/16 21/23/16 24/26/16 35/41/16
f 19/21/17 11/11/17 31/33/17 2/2/17
f 34/40/18 5/39/18 16/18/18 36/42/18
f 7/14/19 1/1/19 4/4/19 13/15/19
f 6/34/20 27/29/20 1/1/20 7/14/20
f 36/42/21 16/18/21 15/17/21 37/43/21
f 38/44/10 39/45/10 40/46/10 41/47/10
f 16/18/22 5/39/22 8/13/22 17/19/22
f 37/43/23 15/17/23 26/28/23 42/48/23
f 26/28/24 15/17/24 18/20/24 22/24/24
f 2/2/25 31/33/25 43/49/25 3/3/25
f 42/48/26 26/28/26 25/27/26 44/50/26
f 31/33/27 30/32/27 35/51/27 43/49/27
f 27/29/28 19/21/28 2/2/28 1/1/28
f 44/50/29 25/27/29 10/37/29 9/52/29
f 45/53/30 46/54/30 47/55/30 48/56/30 49/57/30 50/58/30 51/59/30 52/60/30 53/61/30 54/62/30
f 18/20/31 17/19/31 33/36/31 29/31/31
f 54/63/32 55/64/32 56/65/32 45/66/32
f 57/67/33 58/68/33 59/69/33 60/70/33
f 53/71/34 61/72/34 55/64/34 54/63/34
f 20/22/35 28/30/35 62/73/35 63/74/35
f 52/75/36 64/76/36 61/72/36 53/71/36
f 56/65/37 55/64/37 65/77/37 66/78/37
f 51/79/38 57/67/38 64/76/38 52/75/38
f 36/42/39 37/43/39 67/80/39 68/81/39
f 50/82/40 58/68/40 57/67/40 51/79/40
f 69/83/41 70/84/41 71/85/41 72/86/41
f 49/87/42 73/88/42 58/68/42 50/82/42
f 64/76/43 57/67/43 60/70/43 74/89/43
f 48/90/44 69/83/44 73/88/44 49/87/44
f 28/30/45 32/35/45 75/91/45 62/73/45
f 47/92/46 70/84/46 69/83/46 48/90/46
f 37/43/47 42/48/47 76/93/47 67/80/47
f 46/94/48 77/95/48 70/84/48 47/92/48
f 73/88/49 69/83/49 72/86/49 78/96/49
f 45/97/50 56/98/50 77/95/50 46/94/50
f 9/9/51 12/12/51 79/99/51 80/100/51
f 61/72/52 64/76/52 74/89/52 81/101/52
f 32/35/53 34/40/53 82/102/53 75/91/53
f 77/95/54 56/98/54 66/103/54 83/104/54
f 42/48/55 44/50/55 84/105/55 76/93/55
f 58/68/56 73/88/56 78/96/56 59/69/56
f 12/12/57 20/22/57 63/74/57 79/99/57
f 55/64/58 61/72/58 81/101/58 65/77/58
f 34/40/59 36/42/59 68/81/59 82/102/59
f 70/84/60 77/95/60 83/104/60 71/85/60
f 44/50/61 9/52/61 80/106/61 84/105/61
f 66/103/62 80/100/62 79/99/62 83/104/62
f 83/104/63 79/99/63 63/74/63 71/85/63
f 71/85/64 63/74/64 62/73/64 72/86/64
f 72/86/65 62/73/65 75/91/65 78/96/65
f 75/91/66 82/102/66 85/107/66 86/108/66
f 82/102/67 68/81/67 87/109/67 85/107/67
f 60/70/68 68/81/68 67/80/68 74/89/68
f 74/89/69 67/80/69 76/93/69 81/101/69
f 81/101/70 76/93/70 84/105/70 65/77/70
f 65/77/71 84/105/71 80/106/71 66/78/71
f 43/110/72 35/111/72 88/112/72 89/113/72
f 35/111/72 24/114/72 90/115/72 88/112/72
f 24/114/72 23/116/72 91/117/72 90/115/72
f 23/116/72 29/118/72 92/119/72 91/117/72
f 29/118/72 33/120/72 93/121/72 92/119/72
f 33/120/72 14/122/72 94/123/72 93/121/72
f 14/122/72 13/124/72 95/125/72 94/123/72
f 13/124/72 4/126/72 38/44/72 95/125/72
f 4/126/72 3/127/72 39/45/72 38/44/72
f 3/127/72 43/110/72 89/113/72 39/45/72
f 96/128/72 97/129/72 98/130/72 99/131/72 100/132/72 101/133/72 102/134/72 103/135/72 41/47/72 40/46/72
f 93/121/27 94/123/27 102/134/27 101/133/27
f 90/115/19 91/117/19 99/131/19 98/130/19
f 89/113/13 88/112/13 97/129/13 96/128/13
f 94/123/16 95/125/16 103/135/16 102/134/16
f 91/117/1 92/119/1 100/132/1 99/131/1
f 39/45/31 89/113/31 96/128/31 40/46/31
f 95/125/7 38/44/7 41/47/7 103/135/7
f 92/119/25 93/121/25 101/133/25 100/132/25
f 88/112/4 90/115/4 98/130/4 97/129/4
f 104/136/4 105/137/4 106/138/4 107/139/4
f 108/140/16 109/141/16 110/142/16 111/143/16
f 112/144/31 113/145/31 114/146/31 115/147/31
f 116/148/7 117/149/7 109/141/7 108/140/7
f 118/150/19 119/151/19 105/152/19 104/153/19
f 111/154/27 110/155/27 120/156/27 121/157/27
f 107/158/13 106/159/13 113/145/13 112/144/13
f 115/147/10 114/146/10 117/160/10 116/161/10
f 122/162/1 123/163/1 119/151/1 118/150/1
f 121/157/25 120/156/25 123/163/25 122/162/25
f 111/164/30 121/165/30 122/166/30 118/167/30 104/168/30 107/169/30 112/170/30 115/171/30 116/172/30 108/173/30
f 120/156/72 110/142/72 109/141/72 117/160/72 114/146/72 113/145/72 106/138/72 105/152/72 119/151/72 123/163/72
f 124/174/73 86/108/73 85/107/73 125/175/73
f 125/176/74 85/177/74 87/178/74 126/179/74
f 78/96/75 75/91/75 86/108/75 124/174/75
f 68/81/76 60/70/76 126/180/76 87/109/76
f 60/70/77 59/69/77 125/175/77 126/180/77
f 59/69/78 78/96/78 124/174/78 125/175/78
