# Blender v2.92.0 OBJ File: 'Curso1.blend'
# www.blender.org
mtllib Antorcha.mtl
o Antorcha.005_Cilindro.001
v -0.000000 1.801618 -0.464807
v 0.079097 1.809849 -0.440461
v 0.000000 1.199723 -0.167837
v -0.000000 1.787294 -0.405483
v 0.027050 1.202538 -0.159511
v 0.048760 1.792369 -0.390474
v 0.043768 1.209908 -0.137713
v 0.078896 1.805654 -0.351182
v 0.043768 1.219018 -0.110769
v 0.078896 1.822075 -0.302613
v 0.027050 1.226388 -0.088971
v 0.048760 1.835359 -0.263320
v -0.000000 1.229203 -0.080645
v -0.000000 1.840434 -0.248311
v -0.027050 1.226388 -0.088971
v -0.048760 1.835359 -0.263320
v -0.043768 1.219018 -0.110769
v -0.078896 1.822075 -0.302613
v -0.043768 1.209908 -0.137713
v -0.078896 1.805654 -0.351182
v -0.027050 1.202538 -0.159511
v -0.048760 1.792369 -0.390475
v 0.127981 1.831400 -0.376722
v 0.127981 1.858037 -0.297936
v 0.079097 1.879587 -0.234197
v -0.000000 1.887818 -0.209850
v -0.079097 1.879587 -0.234197
v -0.127981 1.858037 -0.297936
v -0.127981 1.831400 -0.376722
v -0.079097 1.809849 -0.440461
v 0.000000 1.973002 -0.522752
v -0.079097 1.981233 -0.498406
v -0.127981 2.002783 -0.434666
v -0.127981 2.029421 -0.355880
v -0.079097 2.050971 -0.292141
v -0.000000 2.059202 -0.267795
v 0.079097 2.050971 -0.292141
v 0.127981 2.029421 -0.355880
v 0.127981 2.002783 -0.434666
v 0.079097 1.981233 -0.498406
v -0.000000 1.498250 -0.290112
v -0.000000 1.600104 -0.329491
v 0.041687 1.604443 -0.316660
v 0.038935 1.502302 -0.278128
v 0.067451 1.615800 -0.283067
v 0.062998 1.512910 -0.246753
v 0.067451 1.629839 -0.241544
v 0.062998 1.526022 -0.207971
v 0.041687 1.641197 -0.207951
v 0.038935 1.536630 -0.176596
v -0.000000 1.645535 -0.195120
v -0.000000 1.540682 -0.164611
v -0.041687 1.641197 -0.207951
v -0.038935 1.536630 -0.176596
v -0.067451 1.629839 -0.241544
v -0.062998 1.526022 -0.207971
v -0.067451 1.615800 -0.283067
v -0.062998 1.512910 -0.246753
v -0.041687 1.604443 -0.316660
v -0.038935 1.502302 -0.278128
v 0.055833 1.594864 -0.333975
v 0.052147 1.503117 -0.297600
v 0.090340 1.610076 -0.288982
v 0.084376 1.517324 -0.255578
v 0.090340 1.628879 -0.233368
v 0.084376 1.534886 -0.203635
v 0.055833 1.644091 -0.188376
v 0.052147 1.549094 -0.161613
v -0.000000 1.649901 -0.171190
v -0.000000 1.554521 -0.145562
v -0.055833 1.644091 -0.188376
v -0.052147 1.549094 -0.161613
v -0.090340 1.628879 -0.233368
v -0.084376 1.534886 -0.203635
v -0.090340 1.610076 -0.288982
v -0.084376 1.517324 -0.255578
v 0.000000 1.589053 -0.351161
v -0.055833 1.594864 -0.333975
v 0.000000 1.497690 -0.313651
v -0.052147 1.503117 -0.297600
v 0.060415 1.989469 -0.474047
v -0.000000 1.983181 -0.492643
v -0.060415 1.989469 -0.474047
v -0.097754 2.005929 -0.425362
v -0.097754 2.026275 -0.365184
v -0.060415 2.042735 -0.316499
v -0.000000 2.049023 -0.297903
v 0.060415 2.042735 -0.316499
v 0.097754 2.026275 -0.365184
v 0.097754 2.005929 -0.425362
v 0.060415 1.882648 -0.437932
v -0.000000 1.876361 -0.456528
v 0.097754 1.899109 -0.389247
v -0.060415 1.882648 -0.437932
v -0.097754 1.899109 -0.389247
v -0.097754 1.919455 -0.329069
v -0.060415 1.935915 -0.280384
v -0.000000 1.942202 -0.261788
v 0.060415 1.935915 -0.280384
v 0.097754 1.919455 -0.329069
v -0.055767 2.148544 -0.476537
v -0.035451 2.150658 -0.470284
v -0.000000 1.883547 -0.417249
v 0.037191 1.887418 -0.405801
v 0.060176 1.897550 -0.375831
v 0.060176 1.910075 -0.338786
v 0.037191 1.920208 -0.308816
v -0.000000 1.924078 -0.297369
v -0.037191 1.920208 -0.308816
v -0.060176 1.910075 -0.338786
v -0.060176 1.897550 -0.375831
v -0.037191 1.887418 -0.405801
v -0.022895 2.156193 -0.453912
v -0.022895 2.163035 -0.433676
v -0.035451 2.168570 -0.417305
v -0.055767 2.170684 -0.411052
v -0.076083 2.168570 -0.417305
v -0.088639 2.163035 -0.433676
v -0.088639 2.156193 -0.453912
v -0.076083 2.150658 -0.470284
v -0.026593 2.233406 -0.475266
v -0.031404 2.233784 -0.474148
v -0.034377 2.234774 -0.471221
v -0.034377 2.235997 -0.467604
v -0.031404 2.236986 -0.464677
v -0.026593 2.237364 -0.463559
v -0.021782 2.236986 -0.464677
v -0.018809 2.235997 -0.467604
v -0.018809 2.234774 -0.471221
v -0.021782 2.233784 -0.474148
v -0.007097 2.245257 -0.475316
v -0.008505 2.245405 -0.474876
v -0.009376 2.245795 -0.473725
v -0.009376 2.246276 -0.472302
v -0.008505 2.246665 -0.471151
v -0.007097 2.246814 -0.470711
v -0.005688 2.246665 -0.471151
v -0.004817 2.246276 -0.472302
v -0.004817 2.245795 -0.473725
v -0.005688 2.245405 -0.474876
v -0.000000 1.971371 -0.446942
v -0.016646 2.052597 -0.465358
v -0.002230 1.997041 -0.454409
v -0.008323 2.026772 -0.461150
v 0.015693 2.055599 -0.455407
v 0.037191 1.975241 -0.435494
v 0.026442 2.030208 -0.450450
v 0.034311 2.000795 -0.443162
v 0.035731 2.064153 -0.429403
v 0.060176 1.985374 -0.405524
v 0.047954 2.039552 -0.422464
v 0.056901 2.010716 -0.413723
v 0.035731 2.075006 -0.397305
v 0.060176 1.997899 -0.368479
v 0.047954 2.051240 -0.387892
v 0.056901 2.023017 -0.377341
v 0.015693 2.083987 -0.371445
v 0.037191 2.008031 -0.338509
v 0.026442 2.060797 -0.359977
v 0.034311 2.032996 -0.347921
v -0.016646 2.087639 -0.361714
v -0.000000 2.011902 -0.327061
v -0.008323 2.064559 -0.349388
v -0.002230 2.036837 -0.336704
v -0.048878 2.084535 -0.371743
v -0.037191 2.008031 -0.338509
v -0.043035 2.061071 -0.360126
v -0.038757 2.033069 -0.347961
v -0.068754 2.075890 -0.397670
v -0.060176 1.997899 -0.368479
v -0.064465 2.051683 -0.388074
v -0.061326 2.023136 -0.377390
v -0.068754 2.065078 -0.429650
v -0.060176 1.985374 -0.405524
v -0.064465 2.040014 -0.422587
v -0.061326 2.010840 -0.413756
v -0.048878 2.056216 -0.455504
v -0.037191 1.975241 -0.435494
v -0.043035 2.030516 -0.450499
v -0.038757 2.000878 -0.443175
v -0.055833 1.655851 -0.026963
v -0.052147 1.560854 -0.000201
v -0.000000 1.661661 -0.009778
v -0.000000 1.566281 0.015851
v 0.055833 1.655851 -0.026963
v 0.052147 1.560854 -0.000201
vt 0.656507 0.428673
vt 0.661563 0.428673
vt 0.661563 0.428673
vt 0.656507 0.428673
vt 0.622314 0.421117
vt 0.670647 0.421117
vt 0.670647 0.421117
vt 0.622314 0.421117
vt 0.671674 0.420438
vt 0.671674 0.428673
vt 0.666618 0.428673
vt 0.666618 0.420438
vt 0.646396 0.428673
vt 0.651452 0.428673
vt 0.651452 0.428673
vt 0.646396 0.428673
vt 0.636285 0.428673
vt 0.641341 0.428673
vt 0.641341 0.428673
vt 0.636285 0.428673
vt 0.661563 0.428673
vt 0.661563 0.420438
vt 0.626174 0.428673
vt 0.631230 0.428673
vt 0.631230 0.428673
vt 0.626174 0.428673
vt 0.626174 0.428673
vt 0.631230 0.428673
vt 0.656507 0.428673
vt 0.656507 0.420438
vt 0.636285 0.428673
vt 0.671674 0.428673
vt 0.666618 0.428673
vt 0.651452 0.428673
vt 0.651452 0.420438
vt 0.641341 0.428673
vt 0.621119 0.428673
vt 0.621119 0.428673
vt 0.646396 0.428673
vt 0.646396 0.420438
vt 0.621119 0.428673
vt 0.641341 0.420438
vt 0.636285 0.420438
vt 0.641271 0.388316
vt 0.641271 0.393198
vt 0.641271 0.393198
vt 0.641271 0.388316
vt 0.631230 0.420438
vt 0.666618 0.428673
vt 0.626174 0.420438
vt 0.671674 0.428673
vt 0.621119 0.420438
vt 0.750000 0.490000
vt 0.891068 0.444164
vt 0.978254 0.324164
vt 0.978254 0.175836
vt 0.891068 0.055836
vt 0.750000 0.010000
vt 0.608932 0.055836
vt 0.521746 0.175836
vt 0.521746 0.324164
vt 0.608932 0.444164
vt 0.626174 0.403396
vt 0.626174 0.412012
vt 0.621119 0.412012
vt 0.621119 0.403396
vt 0.641341 0.412012
vt 0.646396 0.412012
vt 0.646396 0.412012
vt 0.641341 0.412012
vt 0.631230 0.403396
vt 0.631230 0.412012
vt 0.656507 0.420438
vt 0.661563 0.420438
vt 0.636285 0.403396
vt 0.636285 0.412012
vt 0.626174 0.412012
vt 0.621119 0.412012
vt 0.641341 0.403396
vt 0.636285 0.420438
vt 0.641341 0.420438
vt 0.646396 0.403396
vt 0.656507 0.412012
vt 0.661563 0.412012
vt 0.661563 0.412012
vt 0.656507 0.412012
vt 0.651452 0.403396
vt 0.651452 0.412012
vt 0.636285 0.412012
vt 0.656507 0.403396
vt 0.651452 0.420438
vt 0.661563 0.403396
vt 0.631230 0.420438
vt 0.666618 0.403396
vt 0.666618 0.412012
vt 0.651452 0.412012
vt 0.671674 0.403396
vt 0.671674 0.412012
vt 0.666618 0.420438
vt 0.671674 0.420438
vt 0.631230 0.412012
vt 0.646396 0.420438
vt 0.671674 0.412012
vt 0.666618 0.412012
vt 0.626174 0.420438
vt 0.621119 0.420438
vt 0.646396 0.420438
vt 0.651452 0.420438
vt 0.641341 0.420438
vt 0.640889 0.400573
vt 0.633758 0.402890
vt 0.633758 0.398657
vt 0.638401 0.397149
vt 0.626626 0.400573
vt 0.629114 0.397149
vt 0.622218 0.394506
vt 0.626244 0.393198
vt 0.622218 0.387008
vt 0.626244 0.388316
vt 0.626626 0.380941
vt 0.629114 0.384366
vt 0.633758 0.378624
vt 0.633758 0.382857
vt 0.640889 0.380941
vt 0.638401 0.384366
vt 0.645297 0.387008
vt 0.645297 0.394506
vt 0.638401 0.397149
vt 0.633758 0.398657
vt 0.629114 0.397149
vt 0.626244 0.393198
vt 0.626244 0.388316
vt 0.629114 0.384366
vt 0.633758 0.382857
vt 0.638401 0.384366
vt 0.497207 0.534274
vt 0.503121 0.534274
vt 0.503121 0.534274
vt 0.497207 0.534274
vt 0.513280 0.644639
vt 0.513280 0.689575
vt 0.500159 0.689575
vt 0.500159 0.644639
vt 0.485379 0.504704
vt 0.485379 0.524957
vt 0.479465 0.524957
vt 0.479465 0.504704
vt 0.511169 0.722978
vt 0.517083 0.722978
vt 0.517083 0.722978
vt 0.511169 0.722978
vt 0.502644 0.455935
vt 0.502644 0.500871
vt 0.489523 0.500871
vt 0.489523 0.455935
vt 0.511169 0.722978
vt 0.517083 0.722978
vt 0.505255 0.722978
vt 0.505255 0.722978
vt 0.491293 0.504704
vt 0.491293 0.524957
vt 0.505255 0.693409
vt 0.505255 0.713661
vt 0.499342 0.713661
vt 0.499342 0.693409
vt 0.522997 0.722978
vt 0.522997 0.722978
vt 0.522997 0.693409
vt 0.522997 0.713661
vt 0.517083 0.713661
vt 0.517083 0.693409
vt 0.499342 0.722978
vt 0.505255 0.722978
vt 0.499342 0.722978
vt 0.485379 0.534274
vt 0.491293 0.534274
vt 0.491293 0.534274
vt 0.485379 0.534274
vt 0.522997 0.722978
vt 0.515766 0.455935
vt 0.515766 0.500871
vt 0.502644 0.521542
vt 0.515766 0.521542
vt 0.515766 0.521542
vt 0.502644 0.521542
vt 0.479465 0.534274
vt 0.479465 0.534274
vt 0.500159 0.710247
vt 0.513280 0.710247
vt 0.513280 0.710247
vt 0.500159 0.710247
vt 0.476401 0.500871
vt 0.476401 0.455935
vt 0.502644 0.521542
vt 0.515766 0.521542
vt 0.515766 0.521542
vt 0.502644 0.521542
vt 0.489523 0.521542
vt 0.489523 0.521542
vt 0.476401 0.521542
vt 0.476401 0.521542
vt 0.485379 0.534274
vt 0.491293 0.534274
vt 0.513280 0.710247
vt 0.500159 0.710247
vt 0.511169 0.693409
vt 0.511169 0.713661
vt 0.515766 0.600882
vt 0.527405 0.597101
vt 0.534598 0.587200
vt 0.534598 0.574962
vt 0.527405 0.565062
vt 0.515766 0.561280
vt 0.504127 0.565062
vt 0.496934 0.574962
vt 0.496934 0.587200
vt 0.504127 0.597101
vt 0.499342 0.722978
vt 0.502593 0.501402
vt 0.494250 0.504113
vt 0.485907 0.501402
vt 0.480751 0.494306
vt 0.480751 0.485534
vt 0.485907 0.478437
vt 0.494250 0.475726
vt 0.502593 0.478437
vt 0.507749 0.485534
vt 0.507749 0.494306
vt 0.491293 0.534274
vt 0.485379 0.534274
vt 0.517083 0.722978
vt 0.511169 0.722978
vt 0.513280 0.710247
vt 0.500159 0.710247
vt 0.476401 0.521542
vt 0.489523 0.521542
vt 0.489523 0.521542
vt 0.476401 0.521542
vt 0.522997 0.722978
vt 0.526401 0.710247
vt 0.526401 0.710247
vt 0.479465 0.534274
vt 0.539523 0.710247
vt 0.539523 0.710247
vt 0.523264 0.719496
vt 0.517341 0.719486
vt 0.523284 0.722978
vt 0.517337 0.722978
vt 0.511267 0.719480
vt 0.511257 0.722978
vt 0.505158 0.719480
vt 0.505168 0.722978
vt 0.499084 0.719486
vt 0.499088 0.722978
vt 0.512709 0.702499
vt 0.499447 0.702521
vt 0.512717 0.710247
vt 0.499382 0.710247
vt 0.493077 0.722978
vt 0.493428 0.722978
vt 0.515054 0.513817
vt 0.502065 0.513834
vt 0.514989 0.521542
vt 0.501983 0.521542
vt 0.489301 0.513842
vt 0.489271 0.521542
vt 0.476623 0.513842
vt 0.476653 0.521542
vt 0.491393 0.530803
vt 0.485640 0.530800
vt 0.491406 0.534274
vt 0.485677 0.534274
vt 0.479840 0.530792
vt 0.479879 0.534274
vt 0.479465 0.534274
vt 0.651452 0.412012
vt 0.646396 0.412012
vt 0.668865 0.367232
vt 0.668865 0.453579
vt 0.617057 0.453579
vt 0.617057 0.367232
vt 0.641341 0.412012
vn 1.0000 0.0000 0.0000
vn 0.1709 -0.6209 0.7650
vn 0.3085 -0.3578 -0.8814
vn 0.3090 0.3046 0.9010
vn -0.4473 -0.6853 0.5747
vn 0.8077 -0.2416 -0.5378
vn -0.8090 -0.1883 -0.5568
vn -0.4473 -0.8934 -0.0410
vn 0.9984 -0.0537 0.0181
vn -1.0000 0.0000 -0.0000
vn 0.1709 -0.9578 -0.2312
vn 0.8077 0.1343 0.5741
vn -0.3090 0.3046 0.9010
vn -0.1709 -0.9578 -0.2312
vn 0.3085 0.2504 0.9177
vn -0.3090 -0.3046 -0.9010
vn 0.4473 -0.8934 -0.0410
vn -0.3085 0.2504 0.9177
vn 0.8090 0.1883 0.5568
vn 0.4473 -0.6853 0.5747
vn -0.8077 0.1343 0.5741
vn -0.1709 -0.6209 0.7650
vn -0.9984 -0.0537 0.0181
vn -0.5529 -0.7894 0.2669
vn 0.8090 -0.1883 -0.5568
vn -0.8077 -0.2416 -0.5378
vn 0.3090 -0.3046 -0.9010
vn 0.5529 -0.7894 0.2669
vn -0.3085 -0.3578 -0.8814
vn -0.0000 -0.9473 0.3203
vn -0.8090 0.1883 0.5568
vn -0.3085 -0.3605 -0.8803
vn -0.0963 -0.8053 0.5850
vn -0.8076 -0.2444 -0.5367
vn 0.1524 0.9363 -0.3165
vn -0.9982 -0.0565 0.0191
vn -0.0963 -0.9951 0.0237
vn -0.8076 0.1314 0.5749
vn -0.1233 0.9649 -0.2317
vn -0.3085 0.2476 0.9184
vn 0.3115 -0.9002 0.3043
vn 0.3085 0.2476 0.9184
vn -0.2520 -0.8415 0.4778
vn 0.8076 0.1314 0.5749
vn 0.1233 0.9649 -0.2317
vn 0.9982 -0.0565 0.0191
vn -0.1524 0.9363 -0.3165
vn 0.8076 -0.2444 -0.5367
vn 0.2520 -0.8415 0.4778
vn 0.3085 -0.3605 -0.8803
vn 0.0471 0.8899 -0.4538
vn -0.3115 -0.9002 0.3043
vn 0.0471 0.9827 -0.1793
vn 0.0963 -0.9951 0.0237
vn -0.1233 0.9076 -0.4014
vn 0.0963 -0.8053 0.5850
vn 0.1233 0.9076 -0.4014
vn -0.2520 -0.9588 0.1309
vn -0.0471 0.9827 -0.1793
vn 0.2520 -0.9588 0.1309
vn -0.0471 0.8899 -0.4538
vn 0.3085 -0.3613 -0.8800
vn 0.8075 -0.2451 -0.5365
vn 0.9982 -0.0572 0.0193
vn 0.8075 0.1307 0.5751
vn 0.0812 0.9941 -0.0724
vn -0.0812 0.9941 -0.0724
vn -0.8075 0.1307 0.5751
vn -0.9982 -0.0572 0.0193
vn -0.8075 -0.2451 -0.5365
vn -0.3085 -0.3613 -0.8800
vn 0.0000 0.9473 -0.3203
vn -0.6783 0.6602 0.3226
vn 0.7949 -0.1638 -0.5843
vn 0.7125 0.2829 -0.6421
vn 0.9987 -0.0483 0.0163
vn 0.2884 -0.0883 -0.9534
vn 0.7125 0.6145 0.3387
vn -0.6783 0.3290 -0.6570
vn 0.2934 0.0082 -0.9560
vn -0.8275 0.5318 -0.1798
vn 0.8511 0.4973 -0.1682
vn -0.3082 0.3744 0.8746
vn -0.2704 0.1041 -0.9571
vn 0.2934 0.5867 0.7548
vn -0.2022 0.8245 0.5285
vn -0.8020 0.0624 0.5940
vn -0.9784 -0.1959 0.0662
vn -0.8020 -0.3108 -0.5100
vn -0.2704 0.6636 0.6975
vn 0.2885 0.5084 0.8114
vn 0.7949 0.2244 0.5638
vn -0.3760 0.7106 -0.5947
vn 0.5616 -0.7840 -0.2644
vn 0.2540 0.2013 0.9460
vn -0.4101 0.8640 -0.2920
vn 0.2540 -0.4141 -0.8741
vn 0.5616 -0.4627 0.6859
vn -0.3760 0.9257 0.0414
vn -0.2022 0.3347 -0.9204
vn 0.6263 -0.7385 0.2497
vn 0.3082 -0.2412 -0.9203
vn 0.3047 -0.1511 -0.9404
vn 0.2988 -0.0592 -0.9525
vn 0.8043 -0.0860 -0.5880
vn 0.7828 0.0554 -0.6198
vn 0.7462 0.1912 -0.6376
vn 0.9925 0.1156 -0.0391
vn 0.9586 0.2698 -0.0912
vn 0.9019 0.4091 -0.1383
vn 0.8043 0.2884 0.5196
vn 0.7828 0.4202 0.4590
vn 0.7462 0.5389 0.3908
vn 0.3082 0.3668 0.8778
vn 0.3047 0.4505 0.8392
vn 0.2988 0.5310 0.7930
vn -0.3090 0.3189 0.8960
vn -0.3089 0.3388 0.8887
vn -0.3086 0.3592 0.8808
vn -0.8087 0.1628 0.5652
vn -0.8073 0.1270 0.5763
vn -0.8047 0.0901 0.5868
vn -0.9991 -0.0406 0.0137
vn -0.9947 -0.0971 0.0328
vn -0.9867 -0.1541 0.0521
vn -0.8087 -0.2136 -0.5480
vn -0.8073 -0.2488 -0.5351
vn -0.8047 -0.2845 -0.5211
vn -0.3090 -0.2903 -0.9057
vn -0.3089 -0.2700 -0.9120
vn -0.3086 -0.2490 -0.9180
vn -0.3082 -0.2331 -0.9223
vn 0.3085 0.2468 0.9187
vn -0.3085 0.2468 0.9187
vn 0.9993 -0.0380 0.0028
vn -0.9993 -0.0380 0.0028
vn 0.0812 -0.9941 0.0724
vn -0.0812 -0.9941 0.0724
usemtl Grid
s off
f 24/1/1 23/2/1 39/3/1 38/4/1
f 14/5/2 12/6/2 25/7/2 26/8/2
f 42/9/3 4/10/3 6/11/3 43/12/3
f 26/13/4 25/14/4 37/15/4 36/16/4
f 18/17/5 16/18/5 27/19/5 28/20/5
f 43/12/6 6/11/6 8/21/6 45/22/6
f 30/23/7 29/24/7 33/25/7 32/26/7
f 22/27/8 20/28/8 29/24/8 30/23/8
f 45/22/9 8/21/9 10/29/9 47/30/9
f 29/24/10 28/20/10 34/31/10 33/25/10
f 6/11/11 4/10/11 1/32/11 2/33/11
f 47/30/12 10/29/12 12/34/12 49/35/12
f 27/19/13 26/13/13 36/16/13 35/36/13
f 4/37/14 22/27/14 30/23/14 1/38/14
f 49/35/15 12/34/15 14/39/15 51/40/15
f 1/38/16 30/23/16 32/26/16 31/41/16
f 8/21/17 6/11/17 2/33/17 23/2/17
f 51/40/18 14/39/18 16/18/18 53/42/18
f 25/14/19 24/1/19 38/4/19 37/15/19
f 12/34/20 10/29/20 24/1/20 25/14/20
f 53/42/21 16/18/21 18/17/21 55/43/21
f 89/44/10 90/45/10 93/46/10 100/47/10
f 16/18/22 14/39/22 26/13/22 27/19/22
f 55/43/23 18/17/23 20/28/23 57/48/23
f 20/28/24 18/17/24 28/20/24 29/24/24
f 23/2/25 2/33/25 40/49/25 39/3/25
f 57/48/26 20/28/26 22/27/26 59/50/26
f 2/33/27 1/32/27 31/51/27 40/49/27
f 10/29/28 8/21/28 23/2/28 24/1/28
f 59/50/29 22/27/29 4/37/29 42/52/29
f 3/53/30 5/54/30 7/55/30 9/56/30 11/57/30 13/58/30 15/59/30 17/60/30 19/61/30 21/62/30
f 28/20/31 27/19/31 35/36/31 34/31/31
f 21/63/32 60/64/32 41/65/32 3/66/32
f 54/67/33 52/68/33 70/69/33 72/70/33
f 19/71/34 58/72/34 60/64/34 21/63/34
f 45/22/35 47/30/35 65/73/35 63/74/35
f 17/75/36 56/76/36 58/72/36 19/71/36
f 41/65/37 60/64/37 80/77/37 79/78/37
f 15/79/38 54/67/38 56/76/38 17/75/38
f 53/42/39 55/43/39 73/80/39 71/81/39
f 13/82/40 52/68/40 54/67/40 15/79/40
f 48/83/41 46/84/41 64/85/41 66/86/41
f 11/87/42 50/88/42 52/68/42 13/82/42
f 56/76/43 54/67/43 72/70/43 74/89/43
f 9/90/44 48/83/44 50/88/44 11/87/44
f 47/30/45 49/35/45 67/91/45 65/73/45
f 7/92/46 46/84/46 48/83/46 9/90/46
f 55/43/47 57/48/47 75/93/47 73/80/47
f 5/94/48 44/95/48 46/84/48 7/92/48
f 50/88/49 48/83/49 66/86/49 68/96/49
f 3/97/50 41/98/50 44/95/50 5/94/50
f 42/9/51 43/12/51 61/99/51 77/100/51
f 58/72/52 56/76/52 74/89/52 76/101/52
f 49/35/53 51/40/53 69/102/53 67/91/53
f 44/95/54 41/98/54 79/103/54 62/104/54
f 57/48/55 59/50/55 78/105/55 75/93/55
f 52/68/56 50/88/56 68/96/56 70/69/56
f 43/12/57 45/22/57 63/74/57 61/99/57
f 60/64/58 58/72/58 76/101/58 80/77/58
f 51/40/59 53/42/59 71/81/59 69/102/59
f 46/84/60 44/95/60 62/104/60 64/85/60
f 59/50/61 42/52/61 77/106/61 78/105/61
f 79/103/62 77/100/62 61/99/62 62/104/62
f 62/104/63 61/99/63 63/74/63 64/85/63
f 64/85/64 63/74/64 65/73/64 66/86/64
f 66/86/65 65/73/65 67/91/65 68/96/65
f 67/91/66 69/102/66 183/107/66 185/108/66
f 69/102/67 71/81/67 181/109/67 183/107/67
f 72/70/68 71/81/68 73/80/68 74/89/68
f 74/89/69 73/80/69 75/93/69 76/101/69
f 76/101/70 75/93/70 78/105/70 80/77/70
f 80/77/71 78/105/71 77/106/71 79/78/71
f 40/110/72 31/111/72 82/112/72 81/113/72
f 31/111/72 32/114/72 83/115/72 82/112/72
f 32/114/72 33/116/72 84/117/72 83/115/72
f 33/116/72 34/118/72 85/119/72 84/117/72
f 34/118/72 35/120/72 86/121/72 85/119/72
f 35/120/72 36/122/72 87/123/72 86/121/72
f 36/122/72 37/124/72 88/125/72 87/123/72
f 37/124/72 38/126/72 89/44/72 88/125/72
f 38/126/72 39/127/72 90/45/72 89/44/72
f 39/127/72 40/110/72 81/113/72 90/45/72
f 91/128/72 92/129/72 94/130/72 95/131/72 96/132/72 97/133/72 98/134/72 99/135/72 100/47/72 93/46/72
f 86/121/27 87/123/27 98/134/27 97/133/27
f 83/115/19 84/117/19 95/131/19 94/130/19
f 81/113/13 82/112/13 92/129/13 91/128/13
f 87/123/16 88/125/16 99/135/16 98/134/16
f 84/117/1 85/119/1 96/132/1 95/131/1
f 90/45/31 81/113/31 91/128/31 93/46/31
f 88/125/7 89/44/7 100/47/7 99/135/7
f 85/119/25 86/121/25 97/133/25 96/132/25
f 82/112/4 83/115/4 94/130/4 92/129/4
f 118/136/73 117/137/73 125/138/73 124/139/73
f 107/140/4 158/141/4 162/142/4 108/143/4
f 112/144/16 178/145/16 141/146/16 103/147/16
f 113/148/74 102/149/74 130/150/74 129/151/74
f 109/152/31 166/153/31 170/154/31 110/155/31
f 149/156/75 145/157/75 102/149/75 113/148/75
f 114/158/76 113/148/76 129/151/76 128/159/76
f 111/160/7 174/161/7 178/145/7 112/144/7
f 106/162/19 154/163/19 158/164/19 107/165/19
f 102/149/77 101/166/77 121/167/77 130/150/77
f 103/168/27 141/169/27 146/170/27 104/171/27
f 157/172/78 153/173/78 114/158/78 115/174/78
f 120/175/79 119/176/79 123/177/79 122/178/79
f 145/157/80 142/179/80 101/166/80 102/149/80
f 108/180/13 162/181/13 166/153/13 109/152/13
f 119/176/81 118/136/81 124/139/81 123/177/81
f 153/173/82 149/156/82 113/148/82 114/158/82
f 165/182/83 161/183/83 116/184/83 117/185/83
f 101/186/84 120/175/84 122/178/84 121/187/84
f 161/188/85 157/189/85 115/190/85 116/191/85
f 110/155/10 170/154/10 174/192/10 111/193/10
f 125/194/86 126/195/86 136/196/86 135/197/86
f 169/198/87 165/182/87 117/185/87 118/199/87
f 173/200/88 169/198/88 118/199/88 119/201/88
f 177/202/89 173/203/89 119/176/89 120/175/89
f 117/185/90 116/184/90 126/195/90 125/194/90
f 116/191/91 115/190/91 127/204/91 126/205/91
f 105/206/1 150/207/1 154/163/1 106/162/1
f 104/171/25 146/170/25 150/207/25 105/206/25
f 103/208/30 104/209/30 105/210/30 106/211/30 107/212/30 108/213/30 109/214/30 110/215/30 111/216/30 112/217/30
f 115/174/92 114/158/92 128/159/92 127/218/92
f 140/219/72 131/220/72 132/221/72 133/222/72 134/223/72 135/224/72 136/225/72 137/226/72 138/227/72 139/228/72
f 122/178/93 123/177/93 133/229/93 132/230/93
f 129/151/94 130/150/94 140/231/94 139/232/94
f 126/205/95 127/204/95 137/233/95 136/234/95
f 123/235/96 124/236/96 134/237/96 133/238/96
f 130/150/97 121/167/97 131/239/97 140/231/97
f 127/204/98 128/240/98 138/241/98 137/233/98
f 124/236/99 125/194/99 135/197/99 134/237/99
f 121/187/100 122/178/100 132/230/100 131/242/100
f 128/240/101 129/243/101 139/244/101 138/241/101
f 146/170/102 141/169/102 143/245/102 148/246/102
f 148/246/103 143/245/103 144/247/103 147/248/103
f 147/248/104 144/247/104 142/179/104 145/157/104
f 150/207/105 146/170/105 148/246/105 152/249/105
f 152/249/106 148/246/106 147/248/106 151/250/106
f 151/250/107 147/248/107 145/157/107 149/156/107
f 154/163/108 150/207/108 152/249/108 156/251/108
f 156/251/109 152/249/109 151/250/109 155/252/109
f 155/252/110 151/250/110 149/156/110 153/173/110
f 158/164/111 154/163/111 156/251/111 160/253/111
f 160/253/112 156/251/112 155/252/112 159/254/112
f 159/254/113 155/252/113 153/173/113 157/172/113
f 162/142/114 158/141/114 160/255/114 164/256/114
f 164/256/115 160/255/115 159/257/115 163/258/115
f 163/259/116 159/254/116 157/172/116 161/260/116
f 166/153/117 162/181/117 164/261/117 168/262/117
f 168/262/118 164/261/118 163/263/118 167/264/118
f 167/264/119 163/263/119 161/183/119 165/182/119
f 170/154/120 166/153/120 168/262/120 172/265/120
f 172/265/121 168/262/121 167/264/121 171/266/121
f 171/266/122 167/264/122 165/182/122 169/198/122
f 174/192/123 170/154/123 172/265/123 176/267/123
f 176/267/124 172/265/124 171/266/124 175/268/124
f 175/268/125 171/266/125 169/198/125 173/200/125
f 178/145/126 174/161/126 176/269/126 180/270/126
f 180/270/127 176/269/127 175/271/127 179/272/127
f 179/272/128 175/271/128 173/203/128 177/202/128
f 141/146/129 178/145/129 180/270/129 143/273/129
f 143/273/130 180/270/130 179/272/130 144/274/130
f 144/274/131 179/272/131 177/202/131 142/275/131
f 142/275/132 177/202/132 120/175/132 101/186/132
f 186/276/133 185/108/133 183/107/133 184/277/133
f 184/278/134 183/279/134 181/280/134 182/281/134
f 68/96/135 67/91/135 185/108/135 186/276/135
f 71/81/136 72/70/136 182/282/136 181/109/136
f 72/70/137 70/69/137 184/277/137 182/282/137
f 70/69/138 68/96/138 186/276/138 184/277/138
