# Blender v2.92.0 OBJ File: ''
# www.blender.org
mtllib Barril2.mtl
o Barril.004_Cilindro
v 0.000000 0.857306 -0.508771
v 0.000000 1.088782 -0.411513
v 0.205757 1.088782 -0.356381
v 0.254386 0.857306 -0.440608
v 0.411513 1.088782 0.000000
v 0.384689 1.088782 -0.100110
v 0.325590 1.088782 -0.065989
v 0.343272 1.088782 0.000000
v 0.279043 1.088782 -0.283095
v 0.394722 0.983412 -0.227893
v 0.440608 0.857306 -0.254386
v 0.508771 0.857306 0.000000
v 0.356381 1.088782 0.205757
v 0.440608 0.857306 0.254386
v 0.205757 1.088782 0.356382
v 0.254386 0.857306 0.440608
v 0.000000 1.088782 0.411514
v 0.000000 0.857306 0.508771
v -0.205757 1.088782 0.356382
v -0.254386 0.857306 0.440608
v -0.411513 1.088782 0.000000
v -0.381841 1.088782 0.110741
v -0.322742 1.088782 0.076620
v -0.343272 1.088782 0.000000
v -0.286824 1.088782 0.275314
v -0.390865 0.994015 0.225666
v -0.440608 0.857306 0.254386
v -0.508771 0.857306 0.000000
v -0.356381 1.088782 -0.205756
v -0.440609 0.857306 -0.254386
v 0.297282 1.088782 0.171636
v -0.205757 1.088782 -0.356381
v -0.254386 0.857306 -0.440608
v 0.000000 0.003878 -0.411514
v 0.205757 0.003878 -0.356382
v 0.356381 0.003878 -0.205757
v 0.411513 0.003878 -0.000000
v 0.356381 0.003878 0.205757
v 0.205757 0.003878 0.356381
v 0.000000 0.003878 0.411513
v -0.205757 0.003878 0.356381
v -0.356381 0.003878 0.205757
v -0.411513 0.003878 -0.000000
v -0.356381 0.003878 -0.205756
v -0.205757 0.003878 -0.356382
v -0.254386 0.234423 -0.440608
v 0.000000 0.234424 -0.508771
v -0.254386 0.412249 -0.440608
v -0.254386 0.680511 -0.440608
v 0.000000 0.680511 -0.508771
v 0.000000 0.412249 -0.508771
v -0.440609 0.234423 -0.254386
v 0.254386 0.234423 0.440608
v 0.440608 0.234423 0.254385
v 0.456931 0.231130 0.263809
v 0.263809 0.231130 0.456931
v -0.440609 0.412249 -0.254386
v -0.440609 0.680511 -0.254386
v -0.508771 0.234423 -0.000000
v -0.508771 0.412249 -0.000000
v -0.508771 0.680510 0.000000
v 0.440608 0.680511 -0.254386
v 0.254386 0.680511 -0.440608
v 0.271225 0.674658 -0.469777
v 0.469777 0.674658 -0.271225
v -0.440608 0.234423 0.254385
v -0.254386 0.234423 0.440608
v 0.000000 0.234423 0.508771
v 0.000000 0.231130 0.527618
v -0.263809 0.231130 0.456931
v -0.440608 0.412249 0.254386
v -0.440608 0.680510 0.254386
v -0.254386 0.412249 0.440608
v -0.254386 0.680510 0.440608
v 0.440608 0.680510 0.254386
v 0.508771 0.680510 0.000000
v 0.542452 0.674658 0.000000
v 0.469777 0.674658 0.271226
v -0.456931 0.231130 0.263809
v -0.527618 0.231130 -0.000000
v 0.000000 0.412249 0.508771
v 0.000000 0.680510 0.508771
v -0.456931 0.231130 -0.263809
v -0.263809 0.231130 -0.456931
v 0.254386 0.412249 0.440608
v 0.254386 0.680510 0.440608
v 0.271226 0.674658 0.469777
v 0.000000 0.674658 0.542452
v 0.440608 0.412249 0.254386
v 0.508771 0.234423 -0.000000
v 0.508771 0.412249 -0.000000
v -0.271225 0.674658 0.469777
v -0.469777 0.674658 0.271226
v 0.440608 0.234423 -0.254386
v 0.254386 0.234423 -0.440608
v 0.263809 0.231130 -0.456931
v 0.456931 0.231130 -0.263809
v 0.440608 0.412249 -0.254386
v 0.254386 0.412249 -0.440608
v -0.542452 0.674658 0.000000
v -0.469777 0.674658 -0.271225
v 0.527618 0.231130 -0.000000
v -0.271226 0.674658 -0.469777
v 0.000000 0.674658 -0.542452
v 0.000000 0.231130 -0.527618
v 0.171636 1.088782 0.297283
v 0.297282 0.913855 0.171636
v 0.171636 0.913854 0.297283
v -0.171636 1.088782 -0.297282
v 0.000000 1.088782 -0.343272
v 0.171636 1.088782 -0.297282
v 0.297282 0.972731 -0.171636
v 0.219944 1.088782 -0.248975
v 0.171636 0.913855 -0.297282
v 0.297282 0.913855 -0.171636
v -0.297282 1.088782 -0.171636
v -0.297282 0.984408 0.171636
v -0.227726 1.088782 0.241193
v -0.171636 1.088782 0.297283
v -0.171636 0.913854 0.297283
v -0.297282 0.913855 0.171636
v 0.000000 1.088782 0.343272
v 0.000000 0.913855 -0.343272
v -0.171636 0.913855 -0.297282
v -0.297282 0.913855 -0.171636
v -0.343272 0.913855 0.000000
v 0.000000 0.913854 0.343272
v 0.343272 0.913855 0.000000
v -0.263809 0.415542 0.456931
v 0.000000 0.415542 0.527618
v 0.469777 0.863159 -0.271225
v 0.271225 0.863159 -0.469777
v 0.469777 0.863159 0.271226
v 0.542452 0.863159 0.000000
v -0.527618 0.415542 -0.000000
v -0.456931 0.415542 0.263809
v 0.000000 0.863159 0.542452
v 0.271226 0.863159 0.469777
v -0.263809 0.415543 -0.456931
v -0.456931 0.415542 -0.263809
v -0.469777 0.863159 0.271226
v -0.271225 0.863159 0.469777
v 0.456931 0.415542 -0.263809
v 0.263809 0.415543 -0.456931
v -0.469777 0.863159 -0.271225
v -0.542452 0.863159 0.000000
v 0.456931 0.415542 0.263809
v 0.527618 0.415542 -0.000000
v 0.000000 0.863159 -0.542452
v -0.271226 0.863159 -0.469777
v 0.263809 0.415542 0.456931
v 0.000000 0.415543 -0.527618
vt 0.674587 0.258408
vt 0.674587 0.264212
vt 0.669749 0.264212
vt 0.669749 0.258408
vt 0.660075 0.264212
vt 0.662428 0.264212
vt 0.661935 0.264212
vt 0.660075 0.264212
vt 0.667396 0.264212
vt 0.664912 0.261570
vt 0.664912 0.258408
vt 0.660075 0.258408
vt 0.655238 0.264212
vt 0.655238 0.258408
vt 0.650400 0.264212
vt 0.650400 0.258408
vt 0.645563 0.264212
vt 0.645563 0.258408
vt 0.640726 0.264212
vt 0.640726 0.258408
vt 0.631051 0.264212
vt 0.633655 0.264212
vt 0.633211 0.264212
vt 0.631051 0.264212
vt 0.638122 0.264212
vt 0.635889 0.261836
vt 0.635889 0.258408
vt 0.631051 0.258408
vt 0.626214 0.264212
vt 0.626214 0.258408
vt 0.655238 0.264212
vt 0.621377 0.264212
vt 0.621377 0.258408
vt 0.616540 0.264212
vt 0.616540 0.258408
vt 0.750000 0.490000
vt 0.870000 0.457846
vt 0.957846 0.370000
vt 0.990000 0.250000
vt 0.957846 0.130000
vt 0.870000 0.042154
vt 0.750000 0.010000
vt 0.630000 0.042154
vt 0.542154 0.130000
vt 0.510000 0.250000
vt 0.542154 0.370000
vt 0.630000 0.457846
vt 0.621377 0.235189
vt 0.621377 0.240994
vt 0.616540 0.240994
vt 0.616540 0.235189
vt 0.621377 0.246798
vt 0.621377 0.252603
vt 0.616540 0.252603
vt 0.616540 0.246798
vt 0.626214 0.235189
vt 0.626214 0.240994
vt 0.076936 0.083587
vt 0.087431 0.083587
vt 0.087431 0.083587
vt 0.076936 0.083587
vt 0.626214 0.246798
vt 0.626214 0.252603
vt 0.631051 0.235189
vt 0.631051 0.240994
vt 0.631051 0.246798
vt 0.631051 0.252603
vt 0.108421 0.108774
vt 0.118915 0.108774
vt 0.118915 0.108774
vt 0.108421 0.108774
vt 0.635889 0.235189
vt 0.635889 0.240994
vt 0.055947 0.083587
vt 0.066442 0.083587
vt 0.066442 0.083587
vt 0.055947 0.083587
vt 0.635889 0.246798
vt 0.635889 0.252603
vt 0.640726 0.235189
vt 0.640726 0.240994
vt 0.640726 0.246798
vt 0.640726 0.252603
vt 0.087431 0.108774
vt 0.097926 0.108774
vt 0.097926 0.108774
vt 0.087431 0.108774
vt 0.645563 0.235189
vt 0.645563 0.240994
vt 0.034957 0.083587
vt 0.045452 0.083587
vt 0.045452 0.083587
vt 0.034957 0.083587
vt 0.645563 0.246798
vt 0.645563 0.252603
vt 0.650400 0.235189
vt 0.650400 0.240994
vt 0.013968 0.083587
vt 0.024463 0.083587
vt 0.024463 0.083587
vt 0.013968 0.083587
vt 0.650400 0.246798
vt 0.650400 0.252603
vt 0.066442 0.108774
vt 0.076936 0.108774
vt 0.076936 0.108774
vt 0.066442 0.108774
vt 0.655238 0.235189
vt 0.655238 0.240994
vt 0.655238 0.246798
vt 0.655238 0.252603
vt 0.660075 0.235189
vt 0.660075 0.240994
vt 0.660075 0.246798
vt 0.660075 0.252603
vt 0.045452 0.108774
vt 0.055947 0.108774
vt 0.055947 0.108774
vt 0.045452 0.108774
vt 0.664912 0.235189
vt 0.664912 0.240994
vt 0.833333 0.600000
vt 0.916667 0.600000
vt 0.916667 0.600000
vt 0.833333 0.600000
vt 0.664912 0.246798
vt 0.664912 0.252603
vt 0.669749 0.235189
vt 0.669749 0.240994
vt 0.669749 0.246798
vt 0.669749 0.252603
vt 0.024463 0.108774
vt 0.034957 0.108774
vt 0.034957 0.108774
vt 0.024463 0.108774
vt 0.674587 0.235189
vt 0.674587 0.240994
vt 0.666667 0.600000
vt 0.750000 0.600000
vt 0.750000 0.600000
vt 0.666667 0.600000
vt 0.674587 0.246798
vt 0.674587 0.252603
vt 0.083333 0.800000
vt 0.166667 0.800000
vt 0.166667 0.800000
vt 0.083333 0.800000
vt 0.250000 0.800000
vt 0.333333 0.800000
vt 0.333333 0.800000
vt 0.250000 0.800000
vt 0.416667 0.800000
vt 0.500000 0.800000
vt 0.500000 0.800000
vt 0.416667 0.800000
vt 0.583333 0.800000
vt 0.666667 0.800000
vt 0.666667 0.800000
vt 0.583333 0.800000
vt 0.750000 0.800000
vt 0.833333 0.800000
vt 0.833333 0.800000
vt 0.750000 0.800000
vt 0.916667 0.800000
vt 1.000000 0.800000
vt 1.000000 0.800000
vt 0.916667 0.800000
vt 0.003473 0.108774
vt 0.013968 0.108774
vt 0.013968 0.108774
vt 0.003473 0.108774
vt 0.097926 0.083587
vt 0.108421 0.083587
vt 0.108421 0.083587
vt 0.097926 0.083587
vt 0.118915 0.083587
vt 0.129410 0.083587
vt 0.129410 0.083587
vt 0.118915 0.083587
vt 0.000000 0.600000
vt 0.083333 0.600000
vt 0.083333 0.600000
vt 0.000000 0.600000
vt 0.166667 0.600000
vt 0.250000 0.600000
vt 0.250000 0.600000
vt 0.166667 0.600000
vt 0.333333 0.600000
vt 0.416667 0.600000
vt 0.416667 0.600000
vt 0.333333 0.600000
vt 0.500000 0.600000
vt 0.583333 0.600000
vt 0.583333 0.600000
vt 0.500000 0.600000
vt 0.650400 0.264212
vt 0.655238 0.264212
vt 0.650400 0.264212
vt 0.621377 0.264212
vt 0.616540 0.264212
vt 0.674587 0.264212
vt 0.669749 0.264212
vt 0.664912 0.264212
vt 0.667889 0.264212
vt 0.669749 0.264212
vt 0.664912 0.264212
vt 0.626214 0.264212
vt 0.635889 0.264212
vt 0.638566 0.264212
vt 0.640726 0.264212
vt 0.640726 0.264212
vt 0.635889 0.264212
vt 0.645563 0.264212
vt 0.651944 0.227211
vt 0.640162 0.230368
vt 0.628381 0.227211
vt 0.619756 0.218586
vt 0.616599 0.206804
vt 0.619756 0.195023
vt 0.628381 0.186398
vt 0.640162 0.183241
vt 0.651944 0.186398
vt 0.660568 0.195023
vt 0.663725 0.206804
vt 0.660568 0.218586
vt 0.621377 0.264212
vt 0.616540 0.264212
vt 0.660075 0.264212
vt 0.645563 0.264212
vt 0.631051 0.264212
vt 0.626214 0.264212
vt 0.674587 0.264212
vt 0.066442 0.096181
vt 0.055947 0.096181
vt 0.055947 0.096181
vt 0.066442 0.096181
vt 0.916667 0.900000
vt 0.833333 0.900000
vt 0.833333 0.900000
vt 0.916667 0.900000
vt 0.750000 0.900000
vt 0.666667 0.900000
vt 0.666667 0.900000
vt 0.750000 0.900000
vt 0.045452 0.096181
vt 0.034957 0.096181
vt 0.034957 0.096181
vt 0.045452 0.096181
vt 0.583333 0.900000
vt 0.500000 0.900000
vt 0.500000 0.900000
vt 0.583333 0.900000
vt 0.024463 0.096181
vt 0.013968 0.096181
vt 0.013968 0.096181
vt 0.024463 0.096181
vt 0.416667 0.900000
vt 0.333333 0.900000
vt 0.333333 0.900000
vt 0.416667 0.900000
vt 0.916667 0.700000
vt 0.833333 0.700000
vt 0.833333 0.700000
vt 0.916667 0.700000
vt 0.250000 0.900000
vt 0.166667 0.900000
vt 0.166667 0.900000
vt 0.250000 0.900000
vt 0.750000 0.700000
vt 0.666667 0.700000
vt 0.666667 0.700000
vt 0.750000 0.700000
vt 0.083333 0.900000
vt 0.000000 0.900000
vt 0.000000 0.900000
vt 0.083333 0.900000
vt 0.583333 0.700000
vt 0.500000 0.700000
vt 0.500000 0.700000
vt 0.583333 0.700000
vt 0.129410 0.121368
vt 0.118915 0.121368
vt 0.118915 0.121368
vt 0.129410 0.121368
vt 0.023760 0.145046
vt 0.023760 0.159738
vt 0.011517 0.159738
vt 0.011517 0.145046
vt 0.036004 0.145046
vt 0.036004 0.159738
vt 0.048247 0.145046
vt 0.048247 0.159738
vt 0.060491 0.145046
vt 0.060491 0.159738
vt 0.072734 0.145046
vt 0.072734 0.159738
vt 0.084978 0.145046
vt 0.084978 0.159738
vt 0.097221 0.145046
vt 0.097221 0.159738
vt 0.109465 0.145046
vt 0.109465 0.159738
vt 0.121708 0.145046
vt 0.121708 0.159738
vt 0.133952 0.145046
vt 0.133952 0.159738
vt 0.146195 0.145046
vt 0.146195 0.159738
vt 0.158439 0.145046
vt 0.158439 0.159738
vt 0.024463 0.121368
vt 0.013968 0.121368
vt 0.013968 0.121368
vt 0.024463 0.121368
vt 0.045452 0.121368
vt 0.034957 0.121368
vt 0.034957 0.121368
vt 0.045452 0.121368
vt 0.066442 0.121368
vt 0.055947 0.121368
vt 0.055947 0.121368
vt 0.066442 0.121368
vt 0.087431 0.121368
vt 0.076936 0.121368
vt 0.076936 0.121368
vt 0.087431 0.121368
vt 0.108421 0.121368
vt 0.097926 0.121368
vt 0.097926 0.121368
vt 0.108421 0.121368
vt 0.023760 0.115662
vt 0.023760 0.130354
vt 0.011517 0.130354
vt 0.011517 0.115662
vt 0.036004 0.115662
vt 0.036004 0.130354
vt 0.048247 0.115662
vt 0.048247 0.130354
vt 0.060491 0.115662
vt 0.060491 0.130354
vt 0.072734 0.115662
vt 0.072734 0.130354
vt 0.084978 0.115662
vt 0.084978 0.130354
vt 0.097221 0.115662
vt 0.097221 0.130354
vt 0.109465 0.115662
vt 0.109465 0.130354
vt 0.121708 0.115662
vt 0.121708 0.130354
vt 0.133952 0.115662
vt 0.133952 0.130354
vt 0.146195 0.115662
vt 0.146195 0.130354
vt 0.158439 0.115662
vt 0.158439 0.130354
vt 0.087431 0.096181
vt 0.076936 0.096181
vt 0.076936 0.096181
vt 0.087431 0.096181
vt 0.108421 0.096181
vt 0.097926 0.096181
vt 0.097926 0.096181
vt 0.108421 0.096181
vt 0.129410 0.096181
vt 0.118915 0.096181
vt 0.118915 0.096181
vt 0.129410 0.096181
vt 0.083333 0.700000
vt 0.000000 0.700000
vt 0.000000 0.700000
vt 0.083333 0.700000
vt 0.250000 0.700000
vt 0.166667 0.700000
vt 0.166667 0.700000
vt 0.250000 0.700000
vt 0.416667 0.700000
vt 0.333333 0.700000
vt 0.333333 0.700000
vt 0.416667 0.700000
vn 0.2398 0.3761 -0.8950
vn 0.0000 1.0000 -0.0000
vn 0.6552 0.3761 -0.6552
vn 0.8950 0.3761 0.2398
vn 0.6552 0.3761 0.6552
vn 0.2398 0.3761 0.8950
vn -0.2398 0.3761 0.8950
vn -0.6552 0.3761 0.6552
vn -0.8950 0.3761 -0.2398
vn -0.6552 0.3761 -0.6552
vn -0.2398 0.3761 -0.8950
vn -0.0000 -1.0000 -0.0000
vn -0.2397 -0.3774 -0.8945
vn -0.2588 0.0000 -0.9659
vn -0.6548 -0.3774 -0.6548
vn -0.1259 -0.9840 -0.1259
vn -0.7071 0.0000 -0.7071
vn -0.8945 -0.3774 -0.2397
vn -0.9659 -0.0000 -0.2588
vn -0.1252 -0.9842 0.1252
vn -0.8945 -0.3774 0.2397
vn 0.0461 -0.9840 -0.1720
vn -0.9659 0.0000 0.2588
vn -0.6548 -0.3774 0.6548
vn -0.7071 -0.0000 0.7071
vn -0.1710 -0.9842 -0.0458
vn -0.2397 -0.3774 0.8945
vn 0.1720 -0.9840 -0.0461
vn -0.2588 -0.0000 0.9659
vn 0.2397 -0.3774 0.8945
vn 0.1259 -0.9840 0.1259
vn 0.2588 -0.0000 0.9659
vn -0.0458 -0.9842 -0.1710
vn 0.6548 -0.3774 0.6548
vn 0.7071 -0.0000 0.7071
vn 0.8945 -0.3774 0.2397
vn 0.9659 0.0000 0.2588
vn 0.1252 -0.9842 -0.1252
vn 0.8945 -0.3774 -0.2397
vn -0.1259 -0.9840 0.1259
vn 0.9659 -0.0000 -0.2588
vn 0.6548 -0.3774 -0.6548
vn 0.7071 0.0000 -0.7071
vn 0.1710 -0.9842 0.0458
vn 0.2397 -0.3774 -0.8945
vn -0.1720 -0.9840 -0.0461
vn 0.2588 0.0000 -0.9659
vn 0.1252 -0.9842 0.1252
vn 0.1710 -0.9842 -0.0458
vn 0.0458 -0.9842 -0.1710
vn -0.1252 -0.9842 -0.1252
vn -0.1710 -0.9842 0.0458
vn -0.0458 -0.9842 0.1710
vn 0.0458 -0.9842 0.1710
vn -0.1720 -0.9840 0.0461
vn -0.0461 -0.9840 0.1720
vn 0.0461 -0.9840 0.1720
vn 0.1720 -0.9840 0.0461
vn 0.1259 -0.9840 -0.1259
vn -0.0461 -0.9840 -0.1720
vn 0.8950 0.3761 -0.2398
vn -0.8950 0.3761 0.2398
vn 0.3978 0.6810 0.6148
vn -0.3335 0.6810 -0.6519
vn 0.3312 0.6802 0.6540
vn -0.4008 0.6802 -0.6138
vn 0.0461 0.9840 -0.1720
vn -0.1252 0.9842 0.1252
vn -0.1710 0.9842 -0.0458
vn 0.1720 0.9840 -0.0461
vn -0.0458 0.9842 -0.1710
vn 0.1259 0.9840 0.1259
vn 0.1252 0.9842 -0.1252
vn -0.1259 0.9840 0.1259
vn 0.1710 0.9842 0.0458
vn -0.1720 0.9840 -0.0461
vn 0.0458 0.9842 0.1710
vn -0.0461 0.9840 -0.1720
vn -0.0458 0.9842 0.1710
vn 0.1252 0.9842 0.1252
vn 0.1710 0.9842 -0.0458
vn 0.0458 0.9842 -0.1710
vn -0.1252 0.9842 -0.1252
vn -0.1710 0.9842 0.0458
vn -0.1259 0.9840 -0.1259
vn -0.1720 0.9840 0.0461
vn -0.0461 0.9840 0.1720
vn 0.0461 0.9840 0.1720
vn 0.1720 0.9840 0.0461
vn 0.1259 0.9840 -0.1259
usemtl Grid
s 1
f 1/1/1 2/2/1 3/3/1 4/4/1
f 5/5/2 6/6/2 7/7/2 8/8/2
f 4/4/3 3/3/3 9/9/3 10/10/3 11/11/3
f 12/12/4 5/5/4 13/13/4 14/14/4
f 14/14/5 13/13/5 15/15/5 16/16/5
f 16/16/6 15/15/6 17/17/6 18/18/6
f 18/18/7 17/17/7 19/19/7 20/20/7
f 21/21/2 22/22/2 23/23/2 24/24/2
f 20/20/8 19/19/8 25/25/8 26/26/8 27/27/8
f 28/28/9 21/21/9 29/29/9 30/30/9
f 13/13/2 5/5/2 8/8/2 31/31/2
f 30/30/10 29/29/10 32/32/10 33/33/10
f 33/33/11 32/32/11 2/34/11 1/35/11
f 34/36/12 35/37/12 36/38/12 37/39/12 38/40/12 39/41/12 40/42/12 41/43/12 42/44/12 43/45/12 44/46/12 45/47/12
f 45/48/13 46/49/13 47/50/13 34/51/13
f 48/52/14 49/53/14 50/54/14 51/55/14
f 44/56/15 52/57/15 46/49/15 45/48/15
f 53/58/16 54/59/16 55/60/16 56/61/16
f 57/62/17 58/63/17 49/53/17 48/52/17
f 43/64/18 59/65/18 52/57/18 44/56/18
f 60/66/19 61/67/19 58/63/19 57/62/19
f 62/68/20 63/69/20 64/70/20 65/71/20
f 42/72/21 66/73/21 59/65/21 43/64/21
f 67/74/22 68/75/22 69/76/22 70/77/22
f 71/78/23 72/79/23 61/67/23 60/66/23
f 41/80/24 67/81/24 66/73/24 42/72/24
f 73/82/25 74/83/25 72/79/25 71/78/25
f 75/84/26 76/85/26 77/86/26 78/87/26
f 40/88/27 68/89/27 67/81/27 41/80/27
f 59/90/28 66/91/28 79/92/28 80/93/28
f 81/94/29 82/95/29 74/83/29 73/82/29
f 39/96/30 53/97/30 68/89/30 40/88/30
f 46/98/31 52/99/31 83/100/31 84/101/31
f 85/102/32 86/103/32 82/95/32 81/94/32
f 82/104/33 86/105/33 87/106/33 88/107/33
f 38/108/34 54/109/34 53/97/34 39/96/34
f 89/110/35 75/111/35 86/103/35 85/102/35
f 37/112/36 90/113/36 54/109/36 38/108/36
f 91/114/37 76/115/37 75/111/37 89/110/37
f 72/116/38 74/117/38 92/118/38 93/119/38
f 36/120/39 94/121/39 90/113/39 37/112/39
f 94/122/40 95/123/40 96/124/40 97/125/40
f 98/126/41 62/127/41 76/115/41 91/114/41
f 35/128/42 95/129/42 94/121/42 36/120/42
f 99/130/43 63/131/43 62/127/43 98/126/43
f 58/132/44 61/133/44 100/134/44 101/135/44
f 34/136/45 47/137/45 95/129/45 35/128/45
f 54/138/46 90/139/46 102/140/46 55/141/46
f 51/142/47 50/143/47 63/131/47 99/130/47
f 49/144/48 58/145/48 101/146/48 103/147/48
f 61/148/49 72/149/49 93/150/49 100/151/49
f 74/152/50 82/153/50 88/154/50 92/155/50
f 86/156/51 75/157/51 78/158/51 87/159/51
f 76/160/52 62/161/52 65/162/52 77/163/52
f 63/164/53 50/165/53 104/166/53 64/167/53
f 50/168/54 49/169/54 103/170/54 104/171/54
f 90/172/55 94/173/55 97/174/55 102/175/55
f 95/176/56 47/177/56 105/178/56 96/179/56
f 47/180/57 46/181/57 84/182/57 105/183/57
f 52/184/58 59/185/58 80/186/58 83/187/58
f 66/188/59 67/189/59 70/190/59 79/191/59
f 68/192/60 53/193/60 56/194/60 69/195/60
f 106/196/17 31/31/17 107/197/17 108/198/17
f 2/34/2 32/32/2 109/199/2 110/200/2
f 3/3/2 2/2/2 110/201/2 111/202/2
f 112/203/25 113/204/25 111/202/25 114/205/25 115/206/25
f 32/32/2 29/29/2 116/207/2 109/199/2
f 11/11/61 10/10/61 6/6/61 5/5/61 12/12/61
f 29/29/2 21/21/2 24/24/2 116/207/2
f 117/208/43 118/209/43 119/210/43 120/211/43 121/212/43
f 27/27/62 26/26/62 22/22/62 21/21/62 28/28/62
f 19/19/2 17/17/2 122/213/2 119/210/2
f 17/17/2 15/15/2 106/196/2 122/213/2
f 15/15/2 13/13/2 31/31/2 106/196/2
f 114/214/2 123/215/2 124/216/2 125/217/2 126/218/2 121/219/2 120/220/2 127/221/2 108/222/2 107/223/2 128/224/2 115/225/2
f 110/200/32 109/199/32 124/226/32 123/227/32
f 8/8/23 7/7/23 112/203/23 115/206/23 128/228/23
f 122/213/14 106/196/14 108/198/14 127/229/14
f 116/207/37 24/24/37 126/230/37 125/231/37
f 119/210/47 122/213/47 127/229/47 120/211/47
f 31/31/19 8/8/19 128/228/19 107/197/19
f 109/199/35 116/207/35 125/231/35 124/226/35
f 111/202/29 110/201/29 123/232/29 114/205/29
f 24/24/41 23/23/41 117/208/41 121/212/41 126/230/41
f 22/22/63 26/26/63 117/208/63 23/23/63
f 26/26/64 25/25/64 118/209/64 117/208/64
f 25/25/2 19/19/2 119/210/2 118/209/2
f 10/10/65 9/9/65 113/204/65 112/203/65
f 10/10/66 112/203/66 7/7/66 6/6/66
f 9/9/2 3/3/2 111/202/2 113/204/2
f 81/233/67 73/234/67 129/235/67 130/236/67
f 4/237/68 11/238/68 131/239/68 132/240/68
f 12/241/69 14/242/69 133/243/69 134/244/69
f 71/245/70 60/246/70 135/247/70 136/248/70
f 16/249/71 18/250/71 137/251/71 138/252/71
f 57/253/72 48/254/72 139/255/72 140/256/72
f 20/257/73 27/258/73 141/259/73 142/260/73
f 99/261/74 98/262/74 143/263/74 144/264/74
f 28/265/75 30/266/75 145/267/75 146/268/75
f 91/269/76 89/270/76 147/271/76 148/272/76
f 33/273/77 1/274/77 149/275/77 150/276/77
f 85/277/78 81/278/78 130/279/78 151/280/78
f 1/281/79 4/282/79 132/283/79 149/284/79
f 103/285/14 150/286/14 149/287/14 104/288/14
f 101/289/17 145/290/17 150/286/17 103/285/17
f 100/291/19 146/292/19 145/290/19 101/289/19
f 93/293/23 141/294/23 146/292/23 100/291/23
f 92/295/25 142/296/25 141/294/25 93/293/25
f 88/297/29 137/298/29 142/296/29 92/295/29
f 87/299/32 138/300/32 137/298/32 88/297/32
f 78/301/35 133/302/35 138/300/35 87/299/35
f 77/303/37 134/304/37 133/302/37 78/301/37
f 65/305/41 131/306/41 134/304/41 77/303/41
f 64/307/43 132/308/43 131/306/43 65/305/43
f 104/309/47 149/310/47 132/308/47 64/307/47
f 30/311/80 33/312/80 150/313/80 145/314/80
f 27/315/81 28/316/81 146/317/81 141/318/81
f 18/319/82 20/320/82 142/321/82 137/322/82
f 14/323/83 16/324/83 138/325/83 133/326/83
f 11/327/84 12/328/84 134/329/84 131/330/84
f 84/331/14 139/332/14 152/333/14 105/334/14
f 83/335/17 140/336/17 139/332/17 84/331/17
f 80/337/19 135/338/19 140/336/19 83/335/19
f 79/339/23 136/340/23 135/338/23 80/337/23
f 70/341/25 129/342/25 136/340/25 79/339/25
f 69/343/29 130/344/29 129/342/29 70/341/29
f 56/345/32 151/346/32 130/344/32 69/343/32
f 55/347/35 147/348/35 151/346/35 56/345/35
f 102/349/37 148/350/37 147/348/37 55/347/37
f 97/351/41 143/352/41 148/350/41 102/349/41
f 96/353/43 144/354/43 143/352/43 97/351/43
f 105/355/47 152/356/47 144/354/47 96/353/47
f 89/357/85 85/358/85 151/359/85 147/360/85
f 98/361/86 91/362/86 148/363/86 143/364/86
f 51/365/87 99/366/87 144/367/87 152/368/87
f 48/369/88 51/370/88 152/371/88 139/372/88
f 60/373/89 57/374/89 140/375/89 135/376/89
f 73/377/90 71/378/90 136/379/90 129/380/90
