# Blender v2.92.0 OBJ File: ''
# www.blender.org
mtllib Box.mtl
o Cubo.002_Cubo.001
v 0.500000 0.166303 0.335879
v 0.500000 0.166303 0.111960
v 0.499966 0.166326 0.111952
v 0.484912 0.176439 0.139842
v 0.484912 0.176439 0.325743
v 0.335879 0.166303 0.500000
v 0.335879 0.838061 0.500000
v 0.325743 0.827925 0.484912
v 0.325743 0.176439 0.484912
v 0.335879 0.166303 -0.500000
v -0.335879 0.166303 -0.500000
v -0.325743 0.176439 -0.484912
v 0.325743 0.176439 -0.484912
v 0.500000 0.166303 -0.335879
v 0.500000 0.838061 -0.335879
v 0.484912 0.827925 -0.325743
v 0.484912 0.176439 -0.325743
v -0.500000 0.838061 0.335879
v -0.500000 0.838061 0.111960
v -0.499966 0.838038 0.111952
v -0.484912 0.827925 0.139842
v -0.484912 0.827925 0.325743
v -0.335879 0.838061 -0.500000
v -0.325743 0.827925 -0.484912
v 0.466551 0.968733 0.500000
v 0.452696 1.002182 0.500000
v -0.452696 1.002182 0.500000
v -0.466551 0.968733 0.500000
v -0.335879 0.838061 0.500000
v 0.466551 1.002182 -0.466551
v 0.452696 1.002182 -0.500000
v -0.452696 1.002182 -0.500000
v -0.466551 1.002182 -0.466551
v -0.335879 1.002182 -0.335879
v 0.335879 1.002182 -0.335879
v 0.466551 0.035631 -0.500000
v 0.452696 0.002182 -0.500000
v -0.452696 0.002182 -0.500000
v -0.466551 0.035631 -0.500000
v -0.500000 0.002182 0.166667
v -0.500000 0.002182 0.500000
v -0.500000 0.166303 0.335879
v -0.500000 0.166303 0.111960
v -0.466551 0.002182 -0.466551
v 0.466551 0.002182 -0.466551
v 0.335879 0.002182 -0.335879
v -0.335879 0.002182 -0.335879
v -0.500000 1.002182 -0.166667
v -0.500000 1.002182 -0.452696
v -0.500000 0.968733 -0.466551
v -0.500000 0.838061 -0.335879
v -0.500000 0.838061 -0.111960
v 0.500000 0.002182 -0.166667
v 0.500000 0.002182 -0.452696
v 0.500000 0.035631 -0.466551
v 0.500000 0.166303 -0.111960
v -0.500000 0.002182 -0.166667
v -0.500000 0.002182 -0.452696
v -0.335879 0.002182 -0.111960
v 0.335879 0.002182 -0.111960
v 0.500000 0.049486 -0.500000
v 0.500000 0.954878 -0.500000
v 0.500000 0.968733 -0.466551
v 0.452696 0.002182 0.500000
v 0.466551 0.035631 0.500000
v -0.335879 0.166303 0.500000
v 0.500000 1.002182 -0.452696
v 0.500000 1.002182 -0.166667
v 0.500000 0.838061 -0.111960
v 0.466551 0.002182 0.466551
v -0.335879 0.002182 0.335879
v 0.335879 0.002182 0.335879
v -0.500000 1.002182 0.166667
v -0.500000 1.002182 0.452696
v -0.466551 1.002182 0.466551
v -0.335879 1.002182 0.335879
v -0.335879 1.002182 0.111960
v 0.466551 1.002182 0.466551
v 0.335879 1.002182 0.335879
v 0.500000 0.002182 0.166667
v 0.500000 0.002182 0.452696
v 0.335879 0.002182 0.111960
v -0.500000 0.954878 -0.500000
v -0.500000 0.049486 -0.500000
v -0.500000 0.035631 -0.466551
v -0.500000 0.166303 -0.335879
v 0.500000 0.035631 0.466551
v 0.500000 0.968733 0.466551
v 0.500000 0.954878 0.500000
v 0.500000 0.049486 0.500000
v 0.500000 0.838061 0.335879
v -0.500000 0.166303 -0.111960
v -0.500000 0.968733 0.466551
v -0.500000 0.954878 0.500000
v -0.499966 0.166326 0.111952
v -0.484912 0.176439 0.077320
v -0.484912 0.176439 -0.077320
v -0.499966 0.166326 -0.111952
v 0.325743 0.827925 -0.484912
v 0.484912 0.827925 -0.139842
v 0.484912 0.176439 -0.139842
v -0.325743 0.827925 0.484912
v -0.325743 0.176439 0.484912
v -0.325743 0.017270 0.108581
v 0.325743 0.017270 0.108581
v 0.325743 0.017270 0.325743
v -0.325743 0.017270 0.325743
v 0.325743 0.987094 0.108581
v -0.325743 0.987094 0.108581
v -0.325743 0.987094 0.325743
v 0.325743 0.987094 0.325743
v 0.499966 0.838038 -0.111952
v 0.325743 0.017270 -0.325743
v -0.325743 0.017270 -0.325743
v 0.335879 0.838061 -0.500000
v -0.325743 0.987094 -0.325743
v 0.325743 0.987094 -0.325743
v -0.484912 0.176439 -0.325743
v -0.484912 0.827925 -0.325743
v -0.325743 0.017270 -0.108581
v 0.335879 1.002182 -0.111960
v 0.325743 0.987094 -0.108581
v 0.484912 0.827925 0.325743
v -0.484912 0.176439 0.325743
v -0.335879 1.002182 -0.111960
v -0.325743 0.987094 -0.108581
v 0.325743 0.017270 -0.108581
v 0.335879 1.002182 0.111960
v -0.335879 0.002182 0.111960
v 0.500000 0.838061 0.111960
v 0.499966 0.838038 0.111952
v 0.484912 0.827925 0.077320
v 0.484912 0.827925 -0.077320
v 0.484912 0.827925 0.139842
v 0.484912 0.176439 -0.077320
v 0.484912 0.176439 0.077320
v 0.499966 0.166326 -0.111952
v -0.484912 0.176439 0.139842
v -0.484912 0.176439 -0.139842
v -0.484912 0.827925 -0.139842
v 0.500000 1.002182 0.166667
v 0.500000 1.002182 0.452696
v -0.466551 0.968733 -0.500000
v 0.466551 0.968733 -0.500000
v -0.484912 0.827925 0.077320
v -0.484912 0.827925 -0.077320
v -0.499966 0.838038 -0.111952
v -0.462655 0.176439 -0.103597
v -0.462655 0.176439 0.103597
v -0.462655 0.827925 0.103597
v -0.462655 0.827925 -0.103597
v 0.462655 0.176439 0.103597
v 0.462655 0.176439 -0.103597
v 0.462655 0.827925 -0.103597
v 0.462655 0.827925 0.103597
vt 0.485174 0.347034
vt 0.485174 0.329642
vt 0.485174 0.329642
vt 0.485174 0.332145
vt 0.485174 0.347034
vt 0.616992 0.194695
vt 0.662287 0.194695
vt 0.662287 0.194695
vt 0.616992 0.194695
vt 0.604586 0.265910
vt 0.604586 0.186793
vt 0.604586 0.186793
vt 0.604586 0.265910
vt 0.613625 0.203745
vt 0.679168 0.203745
vt 0.679168 0.203745
vt 0.613625 0.203745
vt 0.583970 0.041030
vt 0.583970 0.097010
vt 0.583970 0.097010
vt 0.583970 0.088952
vt 0.583970 0.041030
vt 0.683703 0.186793
vt 0.683703 0.186793
vt 0.647089 0.248967
vt 0.647784 0.249255
vt 0.647784 0.268081
vt 0.647089 0.268369
vt 0.644372 0.265652
vt 0.644372 0.251684
vt 0.632134 0.135513
vt 0.632558 0.134490
vt 0.660235 0.134490
vt 0.660659 0.135513
vt 0.656664 0.139507
vt 0.636129 0.139507
vt 0.627686 0.226782
vt 0.626991 0.226494
vt 0.626991 0.207667
vt 0.627686 0.207379
vt 0.630403 0.210097
vt 0.630403 0.224065
vt 0.626991 0.192821
vt 0.626991 0.185890
vt 0.630403 0.189303
vt 0.630403 0.193959
vt 0.615004 0.108750
vt 0.615804 0.106819
vt 0.668066 0.106819
vt 0.668866 0.108750
vt 0.661323 0.116293
vt 0.622547 0.116293
vt 0.647784 0.199753
vt 0.647784 0.205700
vt 0.647089 0.205988
vt 0.644372 0.203271
vt 0.644372 0.198615
vt 0.626991 0.234409
vt 0.626991 0.228461
vt 0.627686 0.228173
vt 0.630403 0.230890
vt 0.630403 0.235546
vt 0.613073 0.126060
vt 0.613073 0.109550
vt 0.622547 0.129218
vt 0.670797 0.109550
vt 0.670797 0.126060
vt 0.661323 0.129218
vt 0.627974 0.227477
vt 0.646801 0.227477
vt 0.647089 0.228173
vt 0.644372 0.230890
vt 0.626991 0.269065
vt 0.626991 0.249255
vt 0.627686 0.248967
vt 0.630403 0.251684
vt 0.630403 0.265652
vt 0.647784 0.228461
vt 0.647784 0.234409
vt 0.644372 0.235546
vt 0.668866 0.162612
vt 0.668066 0.164543
vt 0.613073 0.164543
vt 0.622547 0.155069
vt 0.661323 0.155069
vt 0.661681 0.154870
vt 0.661681 0.163613
vt 0.660659 0.164037
vt 0.656664 0.160042
vt 0.656664 0.153197
vt 0.660235 0.165059
vt 0.632558 0.165059
vt 0.632134 0.164037
vt 0.636129 0.160042
vt 0.670797 0.145301
vt 0.670797 0.161812
vt 0.661323 0.142144
vt 0.646801 0.206684
vt 0.627974 0.206684
vt 0.627686 0.205988
vt 0.630403 0.203271
vt 0.627686 0.247576
vt 0.626991 0.247288
vt 0.626991 0.241340
vt 0.630403 0.240202
vt 0.630403 0.244858
vt 0.647089 0.247576
vt 0.646801 0.248271
vt 0.627974 0.248271
vt 0.644372 0.244858
vt 0.626991 0.205700
vt 0.626991 0.199753
vt 0.630403 0.198615
vt 0.647089 0.186586
vt 0.647784 0.186874
vt 0.647784 0.192821
vt 0.644372 0.193959
vt 0.644372 0.189303
vt 0.646801 0.185890
vt 0.416030 0.152990
vt 0.416030 0.097010
vt 0.416030 0.097010
vt 0.416030 0.105068
vt 0.416030 0.144932
vt 0.416030 0.152990
vt 0.611205 0.468187
vt 0.652867 0.468187
vt 0.652867 0.509849
vt 0.611205 0.509849
vt 0.612746 0.458467
vt 0.671038 0.458466
vt 0.671038 0.475100
vt 0.612746 0.475100
vt 0.689475 0.472133
vt 0.731137 0.472133
vt 0.731137 0.513795
vt 0.689475 0.513795
vt 0.606314 0.371844
vt 0.681974 0.371844
vt 0.681974 0.397065
vt 0.606314 0.397065
vt 0.606859 0.328119
vt 0.676925 0.328119
vt 0.676925 0.351474
vt 0.606859 0.351474
vt 0.537349 0.294858
vt 0.537349 0.312250
vt 0.537349 0.312250
vt 0.537349 0.309747
vt 0.537349 0.294858
vt 0.166030 0.541030
vt 0.333970 0.541030
vt 0.333970 0.541030
vt 0.166030 0.541030
vt 0.683703 0.265910
vt 0.683703 0.265910
vt 0.616992 0.239990
vt 0.616992 0.239990
vt 0.666030 0.541030
vt 0.833970 0.541030
vt 0.833970 0.541030
vt 0.666030 0.541030
vt 0.583970 0.208970
vt 0.416030 0.208970
vt 0.416030 0.208970
vt 0.583970 0.208970
vt 0.166030 0.597010
vt 0.166030 0.597010
vt 0.662287 0.239990
vt 0.662287 0.239990
vt 0.666030 0.597010
vt 0.666030 0.597010
vt 0.537349 0.347034
vt 0.537349 0.347034
vt 0.333970 0.652990
vt 0.333970 0.708970
vt 0.333970 0.708970
vt 0.333970 0.652990
vt 0.833970 0.652990
vt 0.833970 0.708970
vt 0.833970 0.708970
vt 0.833970 0.652990
vt 0.166030 0.708970
vt 0.166030 0.708970
vt 0.666030 0.708970
vt 0.666030 0.708970
vt 0.416030 0.041030
vt 0.416030 0.041030
vt 0.833970 0.597010
vt 0.833970 0.597010
vt 0.333970 0.597010
vt 0.333970 0.597010
vt 0.666030 0.652990
vt 0.666030 0.652990
vt 0.166030 0.652990
vt 0.166030 0.652990
vt 0.537349 0.329642
vt 0.537349 0.329642
vt 0.537349 0.327138
vt 0.537349 0.314754
vt 0.537349 0.332145
vt 0.612746 0.480694
vt 0.671038 0.480694
vt 0.671038 0.494531
vt 0.612746 0.494531
vt 0.612746 0.500125
vt 0.671038 0.500125
vt 0.671038 0.516759
vt 0.612746 0.516759
vt 0.606859 0.281408
vt 0.676925 0.281408
vt 0.676925 0.304764
vt 0.606859 0.304764
vt 0.606314 0.321404
vt 0.681974 0.321404
vt 0.681974 0.346624
vt 0.606314 0.346624
vt 0.485174 0.312250
vt 0.485174 0.294858
vt 0.485174 0.294858
vt 0.485174 0.309746
vt 0.485174 0.312250
vt 0.485174 0.314754
vt 0.485174 0.327138
vt 0.416030 0.088952
vt 0.549179 0.330455
vt 0.603974 0.330455
vt 0.603974 0.346091
vt 0.549179 0.346091
vt 0.647784 0.241340
vt 0.647784 0.247288
vt 0.644372 0.240202
vt 0.631112 0.154870
vt 0.631112 0.144680
vt 0.636129 0.146352
vt 0.636129 0.153197
vt 0.647089 0.207379
vt 0.647784 0.207667
vt 0.647784 0.226494
vt 0.647089 0.226782
vt 0.644372 0.224065
vt 0.644372 0.210097
vt 0.661681 0.144680
vt 0.656664 0.146352
vt 0.613073 0.145301
vt 0.622547 0.142144
vt 0.631112 0.163613
vt 0.631112 0.135936
vt 0.661681 0.135936
vt 0.549179 0.312191
vt 0.603974 0.312191
vt 0.603974 0.325197
vt 0.549179 0.325197
vt 0.549179 0.291297
vt 0.603974 0.291297
vt 0.603974 0.306932
vt 0.549179 0.306932
vt 0.583970 0.152990
vt 0.583970 0.152990
vt 0.583970 0.144932
vt 0.583970 0.105068
vt 0.583970 0.161048
vt 0.416030 0.152990
vt 0.416030 0.161048
vt 0.416030 0.097010
vt 0.583970 0.097010
vt 0.583970 0.152990
vt 0.485174 0.329642
vt 0.485174 0.312250
vt 0.537349 0.312250
vt 0.537349 0.329642
vt 0.679168 0.228738
vt 0.613625 0.228738
vt 0.613625 0.225593
vt 0.679168 0.225593
vt 0.613625 0.222448
vt 0.679168 0.222448
vt 0.679168 0.250585
vt 0.613625 0.250585
vt 0.613625 0.247440
vt 0.679168 0.247440
vt 0.613625 0.244295
vt 0.679168 0.244295
vt 0.549179 0.309561
vt 0.603974 0.309561
vt 0.549179 0.327826
vt 0.603974 0.327826
vt 0.616638 0.991638
vt 0.619087 0.994087
vt 0.620819 0.995819
vt 0.625000 1.000000
vt 0.616638 1.000000
vt 0.613174 1.000000
vt 0.672727 0.051027
vt 0.672162 0.050461
vt 0.671762 0.050061
vt 0.670797 0.049096
vt 0.672727 0.049096
vt 0.673527 0.049096
vt 0.866638 0.508362
vt 0.869087 0.505913
vt 0.870819 0.504181
vt 0.875000 0.500000
vt 0.875000 0.508362
vt 0.875000 0.511826
vt 0.672727 0.166473
vt 0.672162 0.165908
vt 0.671762 0.165508
vt 0.670797 0.164543
vt 0.672727 0.164543
vt 0.673527 0.164543
vt 0.633362 0.741638
vt 0.630913 0.744087
vt 0.629181 0.745819
vt 0.625000 0.750000
vt 0.625000 0.741638
vt 0.625000 0.738174
vt 0.668866 0.106819
vt 0.670797 0.106819
vt 0.669831 0.107785
vt 0.669431 0.108185
vt 0.633362 0.508362
vt 0.630913 0.505913
vt 0.629181 0.504181
vt 0.625000 0.500000
vt 0.633362 0.500000
vt 0.636826 0.500000
vt 0.646801 0.269065
vn 0.5576 0.8301 0.0000
vn -0.8301 -0.0000 0.5576
vn 0.0000 0.8301 -0.5576
vn 0.5576 -0.0000 0.8301
vn -0.5576 -0.8301 0.0000
vn 0.8301 0.0000 -0.5576
vn 0.0000 -0.0000 1.0000
vn -0.0000 1.0000 0.0000
vn 0.0000 0.0000 -1.0000
vn -1.0000 -0.0000 0.0000
vn -0.0000 -1.0000 -0.0000
vn 1.0000 0.0000 0.0000
vn -0.5576 0.8301 -0.0000
vn 0.5576 -0.8301 -0.0000
vn 0.0000 -0.5576 0.8301
vn 0.0000 -0.8301 -0.5576
vn 0.0000 0.8301 0.5576
vn 0.0000 0.5576 0.8301
vn -0.5576 -0.0000 0.8301
vn 0.8301 -0.5576 -0.0000
vn -0.8301 0.0000 -0.5576
vn 0.0000 -0.8301 0.5576
vn -0.8301 0.5576 0.0000
vn 0.5576 0.0000 -0.8301
vn -0.8301 -0.5576 -0.0000
vn 0.8301 -0.0000 0.5576
vn 0.8301 0.5576 0.0000
vn 0.0000 -0.5576 -0.8301
vn 0.0000 0.5576 -0.8301
vn -0.5576 0.0000 -0.8301
vn -0.2183 0.9582 -0.1849
vn -0.2948 0.9382 0.1811
vn -0.2948 0.9382 -0.1811
vn -0.2183 0.9582 0.1849
vn -0.2183 -0.9582 0.1849
vn -0.2948 -0.9382 -0.1811
vn -0.2948 -0.9382 0.1811
vn -0.2183 -0.9582 -0.1849
vn 0.2183 0.9582 0.1849
vn 0.2948 0.9382 -0.1811
vn 0.2948 0.9382 0.1811
vn 0.2183 0.9582 -0.1849
vn 0.2183 -0.9582 -0.1849
vn 0.2948 -0.9382 0.1811
vn 0.2948 -0.9382 -0.1811
vn 0.2183 -0.9582 0.1849
vn 0.7631 0.0000 -0.6463
vn 0.8522 -0.0000 0.5233
vn 0.8522 0.0000 -0.5233
vn 0.7631 -0.0000 0.6463
vn -0.7631 -0.0000 0.6463
vn -0.8522 0.0000 -0.5233
vn -0.8522 -0.0000 0.5233
vn -0.7631 0.0000 -0.6463
vn -0.5774 0.5774 0.5773
vn -0.5774 -0.5773 -0.5774
vn -0.5774 0.5773 -0.5774
vn 0.5774 -0.5774 0.5774
vn 0.5774 0.5774 0.5774
vn 0.5773 -0.5774 -0.5774
vn 0.5774 0.5773 -0.5774
usemtl Grid.001
s 1
f 1/1/1 2/2/1 3/3/1 4/4/1 5/5/1
f 6/6/2 7/7/2 8/8/2 9/9/2
f 10/10/3 11/11/3 12/12/3 13/13/3
f 14/14/4 15/15/4 16/16/4 17/17/4
f 18/18/5 19/19/5 20/20/5 21/21/5 22/22/5
f 11/11/6 23/23/6 24/24/6 12/12/6
f 25/25/7 26/26/7 27/27/7 28/28/7 29/29/7 7/30/7
f 30/31/8 31/32/8 32/33/8 33/34/8 34/35/8 35/36/8
f 36/37/9 37/38/9 38/39/9 39/40/9 11/41/9 10/42/9
f 40/43/10 41/44/10 42/45/10 43/46/10
f 44/47/11 38/48/11 37/49/11 45/50/11 46/51/11 47/52/11
f 48/53/10 49/54/10 50/55/10 51/56/10 52/57/10
f 53/58/12 54/59/12 55/60/12 14/61/12 56/62/12
f 57/63/11 58/64/11 44/47/11 47/52/11 59/65/11
f 45/50/11 54/66/11 53/67/11 60/68/11 46/51/11
f 55/60/12 61/69/12 62/70/12 63/71/12 15/72/12 14/61/12
f 41/73/7 64/74/7 65/75/7 6/76/7 66/77/7
f 63/71/12 67/78/12 68/79/12 69/80/12 15/72/12
f 70/81/11 64/82/11 41/83/11 71/84/11 72/85/11
f 73/86/8 74/87/8 75/88/8 76/89/8 77/90/8
f 75/88/8 27/91/8 26/92/8 78/93/8 79/94/8 76/89/8
f 80/95/11 81/96/11 70/81/11 72/85/11 82/97/11
f 50/55/10 83/98/10 84/99/10 85/100/10 86/101/10 51/56/10
f 87/102/12 81/103/12 80/104/12 2/105/12 1/106/12
f 88/107/12 89/108/12 90/109/12 87/102/12 1/106/12 91/110/12
f 85/100/10 58/111/10 57/112/10 92/113/10 86/101/10
f 65/75/7 90/109/7 89/108/7 25/25/7 7/30/7 6/76/7
f 93/114/10 74/115/10 73/116/10 19/117/10 18/118/10
f 41/44/10 94/119/10 93/114/10 18/118/10 42/45/10
f 92/120/13 43/121/13 95/122/13 96/123/13 97/124/13 98/125/13
f 12/126/9 24/127/9 99/128/9 13/129/9
f 17/130/12 16/131/12 100/132/12 101/133/12
f 9/134/7 8/135/7 102/136/7 103/137/7
f 104/138/11 105/139/11 106/140/11 107/141/11
f 108/142/8 109/143/8 110/144/8 111/145/8
f 15/146/14 69/147/14 112/148/14 100/149/14 16/150/14
f 47/151/15 46/152/15 113/153/15 114/154/15
f 23/23/16 115/155/16 99/156/16 24/24/16
f 66/157/17 6/6/17 9/9/17 103/158/17
f 35/159/18 34/160/18 116/161/18 117/162/18
f 51/163/19 86/164/19 118/165/19 119/166/19
f 59/167/20 47/151/20 114/154/20 120/168/20
f 115/155/21 10/10/21 13/13/21 99/156/21
f 7/7/22 29/169/22 102/170/22 8/8/22
f 121/171/23 35/159/23 117/162/23 122/172/23
f 91/173/24 1/1/24 5/5/24 123/174/24
f 82/175/25 72/176/25 106/177/25 105/178/25
f 29/169/26 66/157/26 103/158/26 102/170/26
f 77/179/27 76/180/27 110/181/27 109/182/27
f 72/176/28 71/183/28 107/184/28 106/177/28
f 76/180/29 79/185/29 111/186/29 110/181/29
f 42/187/30 18/18/30 22/22/30 124/188/30
f 34/160/27 125/189/27 126/190/27 116/161/27
f 125/189/27 77/179/27 109/182/27 126/190/27
f 46/152/25 60/191/25 127/192/25 113/153/25
f 60/191/25 82/175/25 105/178/25 127/192/25
f 79/185/23 128/193/23 108/194/23 111/186/23
f 128/193/23 121/171/23 122/172/23 108/194/23
f 71/183/20 129/195/20 104/196/20 107/184/20
f 129/195/20 59/167/20 120/168/20 104/196/20
f 69/147/14 130/197/14 131/198/14 132/199/14 133/200/14 112/148/14
f 130/197/14 91/173/14 123/174/14 134/201/14 131/198/14
f 135/202/12 133/203/12 132/204/12 136/205/12
f 4/206/12 134/207/12 123/208/12 5/209/12
f 117/210/8 116/211/8 126/212/8 122/213/8
f 122/213/8 126/212/8 109/143/8 108/142/8
f 114/214/11 113/215/11 127/216/11 120/217/11
f 120/217/11 127/216/11 105/139/11 104/138/11
f 56/218/1 14/219/1 17/220/1 101/221/1 137/222/1
f 2/2/1 56/218/1 137/222/1 135/223/1 136/224/1 3/3/1
f 43/121/13 42/187/13 124/188/13 138/225/13 95/122/13
f 139/226/10 140/227/10 119/228/10 118/229/10
f 141/230/12 142/231/12 88/107/12 91/110/12 130/232/12
f 141/233/8 68/234/8 121/235/8 128/236/8
f 143/237/9 32/238/9 31/239/9 144/240/9 115/241/9 23/242/9
f 48/243/8 73/86/8 77/90/8 125/244/8
f 41/83/11 40/245/11 129/246/11 71/84/11
f 40/245/11 57/63/11 59/65/11 129/246/11
f 144/240/9 62/70/9 61/69/9 36/37/9 10/42/9 115/241/9
f 53/67/11 80/95/11 82/97/11 60/68/11
f 78/93/8 142/247/8 141/233/8 128/236/8 79/94/8
f 80/104/12 53/58/12 56/62/12 2/105/12
f 68/234/8 67/248/8 30/31/8 35/36/8 121/235/8
f 68/79/12 141/230/12 130/232/12 69/80/12
f 33/34/8 49/249/8 48/243/8 125/244/8 34/35/8
f 57/112/10 40/43/10 43/46/10 92/113/10
f 39/40/9 84/99/9 83/98/9 143/237/9 23/242/9 11/41/9
f 73/116/10 48/53/10 52/57/10 19/117/10
f 96/250/10 145/251/10 146/252/10 97/253/10
f 124/254/10 22/255/10 21/256/10 138/257/10
f 19/19/5 52/258/5 147/259/5 146/260/5 145/261/5 20/20/5
f 52/258/5 51/163/5 119/166/5 140/262/5 147/259/5
f 97/124/31 148/263/31 98/125/31
f 148/263/32 139/264/32 98/125/32
f 138/225/33 149/265/33 95/122/33
f 149/265/34 96/123/34 95/122/34
f 145/261/35 150/266/35 20/20/35
f 150/266/36 21/21/36 20/20/36
f 140/262/37 151/267/37 147/259/37
f 151/267/38 146/260/38 147/259/38
f 136/224/39 152/268/39 3/3/39
f 152/268/40 4/4/40 3/3/40
f 101/221/41 153/269/41 137/222/41
f 153/269/42 135/223/42 137/222/42
f 133/200/43 154/270/43 112/148/43
f 154/270/44 100/149/44 112/148/44
f 134/201/45 155/271/45 131/198/45
f 155/271/46 132/199/46 131/198/46
f 133/272/47 135/273/47 153/274/47 154/275/47
f 154/275/48 153/274/48 101/276/48 100/277/48
f 134/278/49 4/279/49 152/280/49 155/281/49
f 155/281/50 152/280/50 136/282/50 132/283/50
f 145/251/51 96/250/51 149/284/51 150/285/51
f 150/285/52 149/284/52 138/257/52 21/256/52
f 140/227/53 139/226/53 148/286/53 151/287/53
f 151/287/54 148/286/54 97/253/54 146/252/54
f 86/164/13 92/120/13 98/125/13 139/264/13 118/165/13
f 28/288/55 27/289/55 75/290/55 74/291/55 93/292/55 94/293/55
f 39/294/56 38/295/56 44/296/56 58/297/56 85/298/56 84/299/56
f 33/300/57 32/301/57 143/302/57 83/303/57 50/304/57 49/305/57
f 65/306/58 64/307/58 70/308/58 81/309/58 87/310/58 90/311/58
f 78/312/59 26/313/59 25/314/59 89/315/59 88/316/59 142/317/59
f 37/49/60 36/318/60 61/319/60 55/320/60 54/321/60 45/50/60
f 30/322/61 67/323/61 63/324/61 62/325/61 144/326/61 31/327/61
f 28/28/7 94/328/7 41/73/7 66/77/7 29/29/7
