# Blender v2.83.4 OBJ File: 'modelCell.blend'
# www.blender.org
mtllib modelCell.mtl
o Nodo_Cube.001
v -2.500000 0.000000 -2.500000
v 2.500000 0.000000 -2.500000
v -2.500000 5.000000 -2.500000
v -2.500000 0.000000 -1.785714
v -2.500000 5.000000 -1.785714
v 2.500000 0.000000 1.785714
v -1.785714 0.000000 -2.500000
v -1.785714 5.000000 -2.500000
v -1.785714 5.000000 -1.785714
v -1.785714 0.000000 -1.785714
v -1.785714 0.000000 1.785714
vt 0.375000 0.214286
vt 0.625000 0.214286
vt 0.625000 0.250000
vt 0.375000 0.250000
vt 0.160714 0.535714
vt 0.160714 0.500000
vt 0.625000 0.285714
vt 0.625000 0.382653
vt 0.125000 0.500000
vt 0.125000 0.535714
vt 0.625000 0.357143
vt 0.375000 0.285714
vn -1.0000 0.0000 0.0000
vn 1.0000 0.0000 0.0000
vn 0.0000 0.0000 1.0000
vn 0.0000 -1.0000 0.0000
vn 0.0000 1.0000 0.0000
vn 0.0000 0.0000 -1.0000
usemtl White
s off
f 4/1/1 5/2/1 3/3/1 1/4/1
f 10/5/2 7/6/2 8/7/2 9/8/2
f 5/2/3 4/1/3 10/5/3 9/8/3
f 1/9/4 7/6/4 10/5/4 4/10/4
f 5/11/5 9/8/5 8/7/5 3/3/5
f 1/4/6 3/3/6 8/7/6 7/12/6
