# Blender v2.83.4 OBJ File: 'modelCell.blend'
# www.blender.org
mtllib Nodo.mtl
o Nodo_Cube.001
v -1.000000 0.000000 1.000000
v -1.000000 0.000000 -1.000000
v 1.000000 0.000000 1.000000
v 1.000000 0.000000 -1.000000
v -1.000000 2.000000 1.000000
v -1.000000 2.000000 -1.000000
v 1.000000 2.000000 -1.000000
v 1.000000 2.000000 1.000000
v -1.000000 0.000000 -0.714286
v -1.000000 0.000000 0.714286
v -1.000000 2.000000 0.714286
v -1.000000 2.000000 -0.714286
v 1.000000 0.000000 0.714286
v 1.000000 0.000000 -0.714286
v 1.000000 2.000000 -0.714286
v 1.000000 2.000000 0.714286
v 0.714286 0.000000 -1.000000
v -0.714286 0.000000 -1.000000
v -0.714286 2.000000 -1.000000
v 0.714286 2.000000 -1.000000
v -0.714286 0.000000 1.000000
v 0.714286 0.000000 1.000000
v 0.714286 2.000000 1.000000
v -0.714286 2.000000 1.000000
v 0.714286 2.000000 0.714286
v -0.714286 2.000000 0.714286
v 0.714286 2.000000 -0.714286
v -0.714286 2.000000 -0.714286
v 0.714286 0.000000 -0.714286
v -0.714286 0.000000 -0.714286
v 0.714286 0.000000 0.714286
v -0.714286 0.000000 0.714286
vt 0.375000 0.214286
vt 0.625000 0.214286
vt 0.625000 0.250000
vt 0.375000 0.250000
vt 0.375000 0.464286
vt 0.625000 0.464286
vt 0.625000 0.500000
vt 0.375000 0.500000
vt 0.375000 0.714286
vt 0.625000 0.714286
vt 0.625000 0.750000
vt 0.375000 0.750000
vt 0.375000 0.964286
vt 0.625000 0.964286
vt 0.625000 1.000000
vt 0.375000 1.000000
vt 0.339286 0.714286
vt 0.339286 0.750000
vt 0.625000 0.510204
vt 0.625000 0.535714
vt 0.625000 0.785714
vt 0.625000 0.739796
vt 0.625000 0.035714
vt 0.625000 0.867347
vt 0.160714 0.714286
vt 0.375000 0.035714
vt 0.160714 0.750000
vt 0.339286 0.535714
vt 0.339286 0.500000
vt 0.375000 0.535714
vt 0.160714 0.535714
vt 0.160714 0.500000
vt 0.625000 0.285714
vt 0.625000 0.382653
vt 0.375000 0.000000
vt 0.625000 0.000000
vt 0.125000 0.500000
vt 0.125000 0.535714
vt 0.625000 0.892857
vt 0.625000 0.357143
vt 0.125000 0.714286
vt 0.125000 0.750000
vt 0.375000 0.785714
vt 0.375000 0.285714
vn -1.0000 0.0000 0.0000
vn 0.0000 0.0000 -1.0000
vn 1.0000 0.0000 0.0000
vn 0.0000 0.0000 1.0000
vn 0.0000 -1.0000 0.0000
vn 0.0000 1.0000 0.0000
usemtl White
s off
f 9/1/1 12/2/1 6/3/1 2/4/1
f 17/5/2 20/6/2 7/7/2 4/8/2
f 13/9/3 16/10/3 8/11/3 3/12/3
f 21/13/4 24/14/4 5/15/4 1/16/4
f 31/17/5 13/9/5 3/12/5 22/18/5
f 27/19/6 15/20/6 7/7/6 20/6/6
f 23/21/6 8/11/6 16/10/6 25/22/6
f 11/23/2 26/24/2 32/25/2 10/26/2
f 32/25/3 26/24/3 24/14/3 21/27/3
f 13/9/2 31/17/2 25/22/2 16/10/2
f 31/17/1 22/18/1 23/21/1 25/22/1
f 29/28/1 27/19/1 20/6/1 17/29/1
f 17/29/5 4/8/5 14/30/5 29/28/5
f 14/30/4 15/20/4 27/19/4 29/28/4
f 30/31/3 18/32/3 19/33/3 28/34/3
f 4/8/3 7/7/3 15/20/3 14/30/3
f 12/2/4 9/1/4 30/31/4 28/34/4
f 1/35/1 5/36/1 11/23/1 10/26/1
f 2/37/5 18/32/5 30/31/5 9/38/5
f 5/15/6 24/14/6 26/24/6 11/39/6
f 12/40/6 28/34/6 19/33/6 6/3/6
f 10/41/5 32/25/5 21/27/5 1/42/5
f 3/12/4 8/11/4 23/21/4 22/43/4
f 2/4/2 6/3/2 19/33/2 18/44/2
