# Blender v2.92.0 OBJ File: 'Curso1.blend'
# www.blender.org
mtllib NodoProy.mtl
o Pilar1.003_Plano.011
v -3.778293 0.000000 -3.586359
v -3.778293 0.393927 -3.586359
v -4.778293 0.000000 -3.586359
v -4.778293 0.393927 -3.586359
v -3.778293 0.000000 -4.609613
v -3.778293 0.393927 -4.609613
v -4.778293 0.000000 -4.609613
v -4.778293 0.393927 -4.609613
v -4.655057 0.393927 -4.483512
v -4.655057 0.393927 -3.712460
v -3.901528 0.393927 -3.712460
v -3.901528 0.393927 -4.483512
v -4.655057 2.877627 -3.712460
v -4.655057 2.877627 -4.483512
v -3.901528 2.877627 -4.483512
v -3.901528 2.877627 -3.712460
v -4.836098 3.008935 -3.527209
v -4.836098 3.008935 -4.668764
v -3.720487 3.008935 -4.668764
v -3.720487 3.008935 -3.527209
v -4.655057 1.022044 -3.712460
v -4.584171 0.994896 -3.784995
v -4.655057 1.022044 -4.483512
v -4.655057 0.967749 -4.483512
v -4.584171 0.994896 -4.410977
v -3.901528 1.022044 -4.483512
v -3.901528 0.967749 -4.483512
v -3.972415 0.994896 -4.410977
v -3.901528 0.967749 -3.712460
v -3.901528 1.022044 -3.712460
v -3.972415 0.994896 -3.784995
v -4.655057 1.466592 -3.712460
v -4.655057 1.520887 -3.712460
v -4.584171 1.493740 -3.784995
v -4.655057 1.520887 -4.483512
v -4.655057 1.466592 -4.483512
v -4.584171 1.493740 -4.410977
v -3.901528 1.520887 -4.483512
v -3.901528 1.466592 -4.483512
v -3.972415 1.493740 -4.410977
v -3.901528 1.466592 -3.712460
v -3.901528 1.520887 -3.712460
v -3.972415 1.493740 -3.784995
v -4.655057 2.078077 -3.712460
v -4.655057 2.132372 -3.712460
v -4.584171 2.105225 -3.784995
v -4.655057 2.132372 -4.483512
v -4.655057 2.078077 -4.483512
v -4.584171 2.105225 -4.410977
v -3.901528 2.132372 -4.483512
v -3.901528 2.078077 -4.483512
v -3.972415 2.105225 -4.410977
v -3.901528 2.078077 -3.712460
v -3.901528 2.132372 -3.712460
v -3.972415 2.105225 -3.784995
v -4.655057 2.750181 -3.712460
v -4.655057 2.824579 -3.712460
v -4.615360 2.787380 -3.753080
v -4.655057 2.824579 -4.483512
v -4.655057 2.750181 -4.483512
v -4.615360 2.787380 -4.442892
v -3.901528 2.824579 -4.483512
v -3.901528 2.750181 -4.483512
v -3.941225 2.787380 -4.442892
v -3.901528 2.750181 -3.712460
v -3.901528 2.824579 -3.712460
v -3.941225 2.787380 -3.753080
v -4.655057 1.799680 -3.712460
v -3.901528 1.799680 -4.483512
v -4.655057 1.799680 -4.385895
v -4.655057 1.895080 -4.483512
v -4.559658 1.799680 -4.483512
v -4.655057 1.704281 -4.483512
v -3.901528 2.014167 -3.712460
v -4.116014 1.799680 -3.712460
v -3.901528 1.585194 -3.712460
v -3.901528 1.799680 -3.931934
v -3.933353 1.908892 -3.712460
v -3.901528 1.908892 -3.745025
v -3.957043 1.848143 -3.734515
v -4.010739 1.767856 -3.712460
v -4.010739 1.831505 -3.712460
v -3.993190 1.799681 -3.721913
v -3.901528 1.690469 -3.745025
v -3.933353 1.690469 -3.712460
v -3.957043 1.751218 -3.734515
v -3.901528 1.831505 -3.824211
v -3.901528 1.767856 -3.824211
v -3.944728 1.799681 -3.771502
v -4.655057 0.839394 -4.483512
v -3.901528 0.839394 -3.712460
v -3.901528 0.839394 -4.483512
v -4.655057 0.945281 -3.712460
v -4.655057 0.839394 -3.819800
v -4.655057 0.734493 -3.712460
v -4.550157 0.839394 -3.712460
vt 0.538019 0.094915
vt 0.598189 0.094915
vt 0.598189 0.155085
vt 0.538019 0.155085
vt 0.541091 0.189078
vt 0.576760 0.189078
vt 0.576760 0.224747
vt 0.541091 0.224747
vt 0.576474 0.099998
vt 0.607866 0.099998
vt 0.607866 0.131390
vt 0.576474 0.131390
vt 0.607866 0.162782
vt 0.576474 0.162782
vt 0.545082 0.099998
vt 0.545082 0.131390
vt 0.612429 0.224747
vt 0.608033 0.229143
vt 0.581155 0.229143
vt 0.612429 0.260416
vt 0.608033 0.256020
vt 0.576760 0.260416
vt 0.581155 0.256020
vt 0.613111 0.261098
vt 0.540695 0.261098
vt 0.540695 0.261098
vt 0.613111 0.261098
vt 0.545611 0.261098
vt 0.545611 0.188682
vt 0.545611 0.188682
vt 0.545611 0.261098
vt 0.613111 0.188682
vt 0.613111 0.188682
vt 0.608153 0.193639
vt 0.608153 0.256141
vt 0.608153 0.256141
vt 0.608153 0.193639
vt 0.608033 0.256020
vt 0.608033 0.232884
vt 0.608033 0.229143
vt 0.581155 0.256020
vt 0.581155 0.256020
vt 0.608033 0.256020
vt 0.581155 0.229143
vt 0.581155 0.229143
vt 0.546718 0.252237
vt 0.546718 0.191868
vt 0.546718 0.191868
vt 0.546718 0.199511
vt 0.546718 0.252237
vt 0.607087 0.252237
vt 0.589904 0.252237
vt 0.598338 0.252237
vt 0.604538 0.252237
vt 0.607087 0.252237
vt 0.545652 0.256141
vt 0.545652 0.193639
vt 0.545652 0.193639
vt 0.545652 0.256141
vt 0.545652 0.193639
vt 0.608153 0.193639
vt 0.608153 0.193639
vt 0.545652 0.193639
vt 0.545652 0.256141
vt 0.608153 0.256141
vt 0.608153 0.256141
vt 0.608153 0.256141
vt 0.545652 0.256141
vt 0.545652 0.256141
vt 0.545652 0.193639
vt 0.608153 0.193639
vt 0.540695 0.188682
vt 0.540695 0.188682
vt 0.613111 0.188682
vt 0.540695 0.188682
vt 0.613111 0.188682
vt 0.540695 0.261098
vt 0.540695 0.261098
vt 0.613111 0.261098
vt 0.613111 0.261098
vt 0.581155 0.256020
vt 0.608033 0.256020
vt 0.607087 0.191868
vt 0.546718 0.191868
vt 0.607087 0.191868
vt 0.546718 0.191868
vt 0.607087 0.191868
vt 0.546718 0.252237
vt 0.546718 0.252237
vt 0.607087 0.252237
vt 0.607087 0.252237
vt 0.545652 0.193639
vt 0.608153 0.193639
vt 0.545652 0.193639
vt 0.608153 0.193639
vt 0.545652 0.256141
vt 0.545652 0.256141
vt 0.608153 0.256141
vt 0.608153 0.256141
vt 0.546718 0.252237
vt 0.607087 0.252237
vt 0.607087 0.252237
vt 0.546718 0.252237
vt 0.540695 0.188682
vt 0.545652 0.193639
vt 0.608153 0.193639
vt 0.545652 0.256141
vt 0.608153 0.256141
vt 0.607087 0.252237
vt 0.604538 0.252237
vt 0.598338 0.252237
vt 0.546718 0.191868
vt 0.554361 0.191868
vt 0.607087 0.191868
vt 0.607087 0.191868
vt 0.546718 0.191868
vt 0.607087 0.249687
vt 0.607087 0.243487
vt 0.607087 0.235053
vt 0.607087 0.249687
vt 0.607087 0.252237
vt 0.607087 0.243487
vt 0.607087 0.247614
vt 0.607087 0.252237
vt 0.602465 0.252237
vt 0.605361 0.252237
vt 0.607087 0.250510
vt 0.608033 0.229143
vt 0.604291 0.229143
vt 0.540695 0.188682
vt 0.603029 0.188682
vn 0.0000 0.0000 1.0000
vn -1.0000 0.0000 0.0000
vn 0.0000 0.0000 -1.0000
vn 1.0000 0.0000 0.0000
vn 0.0000 -1.0000 0.0000
vn 0.0000 1.0000 0.0000
vn 0.5871 -0.8095 0.0000
vn 0.0000 -0.8158 -0.5783
vn 0.0000 -0.8158 0.5783
vn -0.5871 -0.8095 0.0000
vn -0.3576 -0.9339 0.0000
vn -0.4761 0.8793 0.0141
vn 0.0000 -0.9366 -0.3505
vn 0.0000 0.9366 -0.3505
vn 0.0000 -0.9366 0.3505
vn -0.0145 0.8838 0.4677
vn 0.3576 -0.9339 0.0000
vn 0.3576 0.9339 0.0000
vn -0.3576 0.9339 0.0000
vn 0.0000 0.9366 0.3505
vn -0.6838 -0.7297 0.0000
vn -0.6838 0.7297 0.0000
vn 0.0000 -0.7375 -0.6754
vn 0.0000 0.7375 -0.6754
vn 0.0000 -0.7375 0.6754
vn 0.0000 0.7375 0.6754
vn 0.6838 -0.7297 0.0000
vn 0.6838 0.7297 0.0000
vn -0.7152 0.0000 -0.6989
vn 0.6788 -0.3151 0.6633
vn 0.4425 -0.3151 0.8396
vn 0.0767 0.0000 0.9971
vn 0.4425 0.3151 0.8396
vn 0.6788 0.3151 0.6633
vn 0.7348 0.4198 0.5327
vn 0.9656 0.0000 0.2600
vn 0.7348 -0.4198 0.5327
vn 0.7152 0.0000 0.6989
vn -0.5836 -0.5781 0.5703
vn -0.5817 0.5817 0.5685
usemtl Grid
s off
f 1/1/1 2/2/1 4/3/1 3/4/1
f 3/5/2 4/6/2 8/7/2 7/8/2
f 7/9/3 8/10/3 6/11/3 5/12/3
f 5/12/4 6/11/4 2/13/4 1/14/4
f 3/15/5 7/9/5 5/12/5 1/16/5
f 8/7/6 4/17/6 10/18/6 9/19/6
f 4/17/6 2/20/6 11/21/6 10/18/6
f 2/20/6 6/22/6 12/23/6 11/21/6
f 6/22/6 8/7/6 9/19/6 12/23/6
f 30/24/4 26/25/4 39/26/4 41/27/4
f 26/28/3 23/29/3 36/30/3 39/31/3
f 21/32/1 30/24/1 41/27/1 32/33/1
f 57/34/1 66/35/1 16/36/1 13/37/1
f 10/18/1 11/21/1 91/38/1 96/39/1 95/40/1
f 91/38/4 92/41/4 27/42/4 29/43/4
f 92/41/3 90/44/3 24/45/3 27/42/3
f 38/46/3 35/47/3 73/48/3 72/49/3 69/50/3
f 42/51/4 38/46/4 69/50/4 77/52/4 88/53/4 84/54/4 76/55/4
f 62/56/3 59/57/3 14/58/3 15/59/3
f 66/35/4 62/56/4 15/59/4 16/36/4
f 47/60/2 45/61/2 56/62/2 60/63/2
f 16/36/7 15/59/7 19/64/7 20/65/7
f 45/61/1 54/66/1 65/67/1 56/62/1
f 54/66/4 50/68/4 63/69/4 65/67/4
f 50/68/3 47/60/3 60/63/3 63/69/3
f 18/70/6 17/71/6 20/65/6 19/64/6
f 15/59/8 14/58/8 18/70/8 19/64/8
f 13/37/9 16/36/9 20/65/9 17/71/9
f 14/58/10 13/37/10 17/71/10 18/70/10
f 21/32/11 23/72/11 25/73/11 22/74/11
f 22/74/12 25/73/12 24/75/12 93/76/12
f 23/72/13 26/25/13 28/77/13 25/73/13
f 25/73/14 28/77/14 27/78/14 24/75/14
f 30/24/15 21/32/15 22/74/15 31/79/15
f 31/79/16 22/74/16 93/76/16 29/80/16
f 26/25/17 30/24/17 31/79/17 28/77/17
f 28/81/18 31/82/18 29/43/18 27/42/18
f 33/83/11 35/47/11 37/84/11 34/85/11
f 34/85/19 37/84/19 36/86/19 32/87/19
f 35/47/13 38/46/13 40/88/13 37/84/13
f 37/84/14 40/88/14 39/89/14 36/86/14
f 42/51/15 33/83/15 34/85/15 43/90/15
f 43/90/20 34/85/20 32/87/20 41/91/20
f 38/46/17 42/51/17 43/90/17 40/88/17
f 40/88/18 43/90/18 41/91/18 39/89/18
f 45/61/11 47/60/11 49/92/11 46/93/11
f 46/93/19 49/92/19 48/94/19 44/95/19
f 47/60/13 50/68/13 52/96/13 49/92/13
f 49/92/14 52/96/14 51/97/14 48/94/14
f 54/66/15 45/61/15 46/93/15 55/98/15
f 55/98/20 46/93/20 44/95/20 53/99/20
f 50/68/17 54/66/17 55/98/17 52/96/17
f 52/100/18 55/101/18 53/102/18 51/103/18
f 23/72/2 21/32/2 32/33/2 36/104/2
f 57/34/21 59/57/21 61/105/21 58/106/21
f 58/106/22 61/105/22 60/63/22 56/62/22
f 59/57/23 62/56/23 64/107/23 61/105/23
f 61/105/24 64/107/24 63/69/24 60/63/24
f 66/35/25 57/34/25 58/106/25 67/108/25
f 67/108/26 58/106/26 56/62/26 65/67/26
f 62/56/27 66/35/27 67/108/27 64/107/27
f 64/107/28 67/108/28 65/67/28 63/69/28
f 59/57/2 57/34/2 13/37/2 14/58/2
f 74/109/4 79/110/4 87/111/4 77/52/4 69/50/4 51/103/4 53/102/4
f 71/112/2 70/113/2 68/114/2 44/115/2 48/116/2
f 33/83/1 42/51/1 76/55/1 85/117/1 81/118/1 75/119/1 68/114/1
f 69/50/3 72/49/3 71/112/3 48/116/3 51/103/3
f 70/113/29 71/112/29 72/49/29 73/48/29
f 35/47/2 33/83/2 68/114/2 70/113/2 73/48/2
f 74/109/30 78/120/30 80/121/30 79/110/30
f 78/120/31 82/122/31 83/123/31 80/121/31
f 75/119/32 81/118/32 83/123/32 82/122/32
f 81/118/33 85/117/33 86/124/33 83/123/33
f 76/55/34 84/54/34 86/124/34 85/117/34
f 84/54/35 88/53/35 89/125/35 86/124/35
f 77/52/36 87/111/36 89/125/36 88/53/36
f 87/111/37 79/110/37 80/121/37 89/125/37
f 80/126/38 83/123/38 86/127/38 89/125/38
f 68/114/1 75/119/1 82/122/1 78/120/1 74/109/1 53/102/1 44/115/1
f 12/23/3 9/19/3 90/44/3 92/41/3
f 11/21/4 12/23/4 92/41/4 91/38/4
f 93/128/1 96/39/1 91/38/1 29/43/1
f 9/19/2 10/18/2 95/40/2 94/129/2 90/44/2
f 96/39/39 93/128/39 94/129/39
f 90/130/2 94/131/2 93/76/2 24/75/2
f 95/40/40 96/39/40 94/129/40
