# Blender v2.83.4 OBJ File: 'modelCell.blend'
# www.blender.org
mtllib PasajeEste.mtl
o PasajeEste_Cube.003
v 1.000000 0.000000 1.000000
v -1.000000 0.000000 1.000000
v 1.000000 0.000000 -1.000000
v -1.000000 0.000000 -1.000000
v 1.000000 2.000000 1.000000
v -1.000000 2.000000 1.000000
v -1.000000 2.000000 -1.000000
v 1.000000 2.000000 -1.000000
v -1.000000 0.000000 -0.714286
v -1.000000 0.000000 0.714286
v -1.000000 2.000000 0.714286
v -1.000000 2.000000 -0.714286
v 1.000000 0.000000 0.714286
v 1.000000 0.000000 -0.714286
v 1.000000 2.000000 -0.714286
v 1.000000 2.000000 0.714286
vt 0.375000 0.000000
vt 0.625000 0.000000
vt 0.625000 0.250000
vt 0.375000 0.250000
vt 0.375000 0.464286
vt 0.625000 0.464286
vt 0.625000 0.500000
vt 0.375000 0.500000
vt 0.625000 0.750000
vt 0.375000 0.750000
vt 0.375000 0.964286
vt 0.625000 0.964286
vt 0.625000 1.000000
vt 0.375000 1.000000
vt 0.339286 0.500000
vt 0.339286 0.750000
vt 0.625000 0.785714
vt 0.625000 0.285714
vt 0.125000 0.500000
vt 0.160714 0.500000
vt 0.160714 0.750000
vt 0.125000 0.750000
vt 0.375000 0.785714
vt 0.375000 0.285714
vn 0.0000 0.0000 1.0000
vn -1.0000 0.0000 0.0000
vn -0.0000 0.0000 -1.0000
vn 1.0000 0.0000 0.0000
vn 0.0000 -1.0000 0.0000
vn 0.0000 1.0000 0.0000
usemtl White.002
s off
f 1/1/1 5/2/1 6/3/1 2/4/1
f 9/5/2 12/6/2 7/7/2 4/8/2
f 4/8/3 7/7/3 8/9/3 3/10/3
f 13/11/4 16/12/4 5/13/4 1/14/4
f 9/15/5 4/8/5 3/10/5 14/16/5
f 15/17/6 8/9/6 7/7/6 12/6/6
f 5/13/6 16/12/6 11/18/6 6/3/6
f 2/19/5 10/20/5 13/21/5 1/22/5
f 3/10/4 8/9/4 15/17/4 14/23/4
f 15/17/1 12/6/1 9/15/1 14/23/1
f 16/12/3 13/11/3 10/20/3 11/18/3
f 2/4/2 6/3/2 11/18/2 10/24/2
