# Blender v2.92.0 OBJ File: ''
# www.blender.org
mtllib Moneda.mtl
o Circle
v -0.052088 -0.170939 -0.390431
v -0.052088 -0.091485 -0.416278
v -0.052088 -0.008515 -0.426127
v -0.052088 0.074782 -0.419600
v -0.052088 0.155205 -0.396949
v -0.052088 0.229663 -0.359042
v -0.052088 0.295296 -0.307338
v -0.052088 0.349581 -0.243824
v -0.052088 0.390431 -0.170939
v -0.052088 0.416278 -0.091485
v -0.052088 0.426127 -0.008515
v -0.052088 0.419600 0.074782
v -0.052088 0.396949 0.155205
v -0.052088 0.359042 0.229663
v -0.052088 0.307338 0.295296
v -0.052088 0.243823 0.349581
v -0.052088 0.170939 0.390431
v -0.052088 0.091485 0.416278
v -0.052088 0.008515 0.426127
v -0.052088 -0.074782 0.419600
v -0.052088 -0.155205 0.396948
v -0.052088 -0.229663 0.359042
v -0.052088 -0.295296 0.307338
v -0.052088 -0.349581 0.243823
v -0.052088 -0.390431 0.170938
v -0.052088 -0.416278 0.091484
v -0.052088 -0.426127 0.008515
v -0.052088 -0.419600 -0.074782
v -0.052088 -0.396948 -0.155205
v -0.052088 -0.359042 -0.229664
v -0.052088 -0.307338 -0.295296
v -0.052088 -0.243823 -0.349581
v 0.052088 -0.170939 -0.390431
v 0.052088 -0.091485 -0.416278
v 0.052088 -0.008515 -0.426127
v 0.052088 0.074782 -0.419600
v 0.052088 0.155205 -0.396949
v 0.052088 0.229663 -0.359042
v 0.052088 0.295296 -0.307338
v 0.052088 0.349581 -0.243824
v 0.052088 0.390431 -0.170939
v 0.052088 0.416278 -0.091485
v 0.052088 0.426127 -0.008515
v 0.052088 0.419600 0.074782
v 0.052088 0.396949 0.155205
v 0.052088 0.359042 0.229663
v 0.052088 0.307338 0.295296
v 0.052088 0.243823 0.349581
v 0.052088 0.170939 0.390431
v 0.052088 0.091485 0.416278
v 0.052088 0.008515 0.426127
v 0.052088 -0.074782 0.419600
v 0.052088 -0.155205 0.396948
v 0.052088 -0.229663 0.359042
v 0.052088 -0.295296 0.307338
v 0.052088 -0.349581 0.243823
v 0.052088 -0.390431 0.170938
v 0.052088 -0.416278 0.091484
v 0.052088 -0.426127 0.008515
v 0.052088 -0.419600 -0.074782
v 0.052088 -0.396948 -0.155205
v 0.052088 -0.359042 -0.229664
v 0.052088 -0.307338 -0.295296
v 0.052088 -0.243823 -0.349581
vt 0.199721 0.162390
vt 0.199721 0.162390
vt 0.199721 0.162390
vt 0.199721 0.162390
vt 0.199721 0.162390
vt 0.199721 0.162390
vt 0.199721 0.162390
vt 0.199721 0.162390
vt 0.199721 0.162390
vt 0.199721 0.162390
vt 0.199721 0.162390
vt 0.199721 0.162390
vt 0.199721 0.162390
vt 0.199721 0.162390
vt 0.199721 0.162390
vt 0.199721 0.162390
vt 0.199721 0.162390
vt 0.199721 0.162390
vt 0.199721 0.162390
vt 0.199721 0.162390
vt 0.199721 0.162390
vt 0.199721 0.162390
vt 0.199721 0.162390
vt 0.199721 0.162390
vt 0.199721 0.162390
vt 0.199721 0.162390
vt 0.199721 0.162390
vt 0.199721 0.162390
vt 0.199721 0.162390
vt 0.199721 0.162390
vt 0.199721 0.162390
vt 0.199721 0.162390
vt 0.199721 0.162390
vt 0.199721 0.162390
vt 0.199721 0.162390
vt 0.199721 0.162390
vt 0.199721 0.162390
vt 0.199721 0.162390
vt 0.199721 0.162390
vt 0.199721 0.162390
vt 0.199721 0.162390
vt 0.199721 0.162390
vt 0.199721 0.162390
vt 0.199721 0.162390
vt 0.199721 0.162390
vt 0.199721 0.162390
vt 0.199721 0.162390
vt 0.199721 0.162390
vt 0.199721 0.162390
vt 0.199721 0.162390
vt 0.199721 0.162390
vt 0.199721 0.162390
vt 0.199721 0.162390
vt 0.199721 0.162390
vt 0.199721 0.162390
vt 0.199721 0.162390
vt 0.199721 0.162390
vt 0.199721 0.162390
vt 0.199721 0.162390
vt 0.199721 0.162390
vt 0.199721 0.162390
vt 0.199721 0.162390
vt 0.199721 0.162390
vt 0.199721 0.162390
vt 0.056390 0.420522
vt 0.047767 0.510593
vt 0.056881 0.600616
vt 0.083384 0.687131
vt 0.126255 0.766814
vt 0.183848 0.836601
vt 0.253948 0.893811
vt 0.333864 0.936247
vt 0.420522 0.962276
vt 0.510593 0.970899
vt 0.600616 0.961784
vt 0.687131 0.935282
vt 0.766815 0.892410
vt 0.836601 0.834818
vt 0.893812 0.764716
vt 0.936247 0.684802
vt 0.962276 0.598143
vt 0.970899 0.508072
vt 0.961784 0.418049
vt 0.935282 0.331534
vt 0.892411 0.251852
vt 0.834818 0.182065
vt 0.764717 0.124854
vt 0.684801 0.082419
vt 0.598142 0.056389
vt 0.508072 0.047767
vt 0.418049 0.056882
vt 0.331534 0.083384
vt 0.251851 0.126256
vt 0.182064 0.183848
vt 0.124854 0.253949
vt 0.082419 0.333864
vt 0.934597 0.320035
vt 0.891137 0.238707
vt 0.832646 0.167421
vt 0.761371 0.108916
vt 0.680053 0.065439
vt 0.591814 0.038662
vt 0.500048 0.029615
vt 0.408279 0.038644
vt 0.320034 0.065403
vt 0.238708 0.108863
vt 0.167421 0.167354
vt 0.108915 0.238629
vt 0.065439 0.319947
vt 0.038662 0.408186
vt 0.029615 0.499953
vt 0.038644 0.591721
vt 0.065403 0.679966
vt 0.108863 0.761293
vt 0.167354 0.832579
vt 0.238629 0.891085
vt 0.319948 0.934561
vt 0.408186 0.961338
vt 0.499953 0.970385
vt 0.591721 0.961356
vt 0.679965 0.934597
vt 0.761293 0.891137
vt 0.832579 0.832646
vt 0.891085 0.761371
vt 0.934561 0.680052
vt 0.961337 0.591814
vt 0.970385 0.500048
vt 0.961356 0.408279
vn -0.6857 -0.6668 0.2919
vn 0.6857 -0.6668 0.2919
vn 0.6857 -0.5970 0.4164
vn -0.6857 -0.5970 0.4164
vn -0.6857 0.7166 0.1277
vn 0.6857 0.7166 0.1277
vn 0.6857 0.7277 -0.0145
vn -0.6857 0.7277 -0.0145
vn -0.6857 -0.7109 0.1562
vn 0.6857 -0.7109 0.1562
vn -0.6857 0.6779 0.2651
vn 0.6857 0.6779 0.2651
vn -0.6857 -0.7277 0.0145
vn 0.6857 -0.7277 0.0145
vn -0.6857 0.6131 0.3922
vn 0.6857 0.6131 0.3922
vn -0.6857 -0.7166 -0.1277
vn 0.6857 -0.7166 -0.1277
vn -0.6857 0.5249 0.5043
vn 0.6857 0.5249 0.5043
vn -0.6857 -0.1562 -0.7109
vn 0.6857 -0.1562 -0.7109
vn 0.6857 -0.2919 -0.6668
vn -0.6857 -0.2919 -0.6668
vn -0.6857 -0.6779 -0.2651
vn 0.6857 -0.6779 -0.2651
vn -0.6857 0.4164 0.5970
vn 0.6857 0.4164 0.5970
vn -0.6857 -0.0145 -0.7277
vn 0.6857 -0.0145 -0.7277
vn -0.6857 -0.6131 -0.3922
vn 0.6857 -0.6131 -0.3922
vn -0.6857 0.2919 0.6668
vn 0.6857 0.2919 0.6668
vn -0.6857 0.1277 -0.7166
vn 0.6857 0.1277 -0.7166
vn -0.6857 -0.5249 -0.5043
vn 0.6857 -0.5249 -0.5043
vn -0.6857 0.1562 0.7109
vn 0.6857 0.1562 0.7109
vn -0.6857 0.2651 -0.6779
vn 0.6857 0.2651 -0.6779
vn -0.6857 -0.4164 -0.5970
vn 0.6857 -0.4164 -0.5970
vn -0.6857 0.0145 0.7277
vn 0.6857 0.0145 0.7277
vn -0.6857 0.3922 -0.6131
vn 0.6857 0.3922 -0.6131
vn -0.6857 -0.1277 0.7166
vn 0.6857 -0.1277 0.7166
vn -0.6857 0.5043 -0.5249
vn 0.6857 0.5043 -0.5249
vn -0.6857 -0.2651 0.6779
vn 0.6857 -0.2651 0.6779
vn -0.6857 0.5970 -0.4164
vn 0.6857 0.5970 -0.4164
vn -0.6857 -0.3922 0.6131
vn 0.6857 -0.3922 0.6131
vn -0.6857 0.6668 -0.2919
vn 0.6857 0.6668 -0.2919
vn -0.6857 -0.5043 0.5249
vn 0.6857 -0.5043 0.5249
vn -0.6857 0.7109 -0.1562
vn 0.6857 0.7109 -0.1562
usemtl Material.001
s 1
f 25/1/1 57/2/2 56/3/3 24/4/4
f 12/5/5 44/6/6 43/7/7 11/8/8
f 26/9/9 58/10/10 57/2/2 25/1/1
f 13/11/11 45/12/12 44/6/6 12/5/5
f 27/13/13 59/14/14 58/10/10 26/9/9
f 14/15/15 46/16/16 45/12/12 13/11/11
f 28/17/17 60/18/18 59/14/14 27/13/13
f 15/19/19 47/20/20 46/16/16 14/15/15
f 2/21/21 34/22/22 33/23/23 1/24/24
f 29/25/25 61/26/26 60/18/18 28/17/17
f 16/27/27 48/28/28 47/20/20 15/19/19
f 3/29/29 35/30/30 34/22/22 2/21/21
f 30/31/31 62/32/32 61/26/26 29/25/25
f 17/33/33 49/34/34 48/28/28 16/27/27
f 4/35/35 36/36/36 35/30/30 3/29/29
f 31/37/37 63/38/38 62/32/32 30/31/31
f 18/39/39 50/40/40 49/34/34 17/33/33
f 5/41/41 37/42/42 36/36/36 4/35/35
f 32/43/43 64/44/44 63/38/38 31/37/37
f 19/45/45 51/46/46 50/40/40 18/39/39
f 6/47/47 38/48/48 37/42/42 5/41/41
f 1/24/24 33/23/23 64/44/44 32/43/43
f 20/49/49 52/50/50 51/46/46 19/45/45
f 7/51/51 39/52/52 38/48/48 6/47/47
f 21/53/53 53/54/54 52/50/50 20/49/49
f 8/55/55 40/56/56 39/52/52 7/51/51
f 22/57/57 54/58/58 53/54/54 21/53/53
f 9/59/59 41/60/60 40/56/56 8/55/55
f 23/61/61 55/62/62 54/58/58 22/57/57
f 10/63/63 42/64/64 41/60/60 9/59/59
f 24/4/4 56/3/3 55/62/62 23/61/61
f 11/8/8 43/7/7 42/64/64 10/63/63
f 34/65/22 35/66/30 36/67/36 37/68/42 38/69/48 39/70/52 40/71/56 41/72/60 42/73/64 43/74/7 44/75/6 45/76/12 46/77/16 47/78/20 48/79/28 49/80/34 50/81/40 51/82/46 52/83/50 53/84/54 54/85/58 55/86/62 56/87/3 57/88/2 58/89/10 59/90/14 60/91/18 61/92/26 62/93/32 63/94/38 64/95/44 33/96/23
f 2/97/21 1/98/24 32/99/43 31/100/37 30/101/31 29/102/25 28/103/17 27/104/13 26/105/9 25/106/1 24/107/4 23/108/61 22/109/57 21/110/53 20/111/49 19/112/45 18/113/39 17/114/33 16/115/27 15/116/19 14/117/15 13/118/11 12/119/5 11/120/8 10/121/63 9/122/59 8/123/55 7/124/51 6/125/47 5/126/41 4/127/35 3/128/29
